<svg version="1.2" baseProfile="tiny-ps" xmlns="http://www.w3.org/2000/svg" viewBox="0 0 426 100" width="426" height="100">
	<title>gardeshgari-logo-svg</title>
	<style>
		tspan { white-space:pre }
		.shp0 { fill: #ae0f0a } 
		.shp1 { fill: #73c8d9;stroke: #73c8d9;stroke-width: 0.5 } 
	</style>
	<g id="Layer">
		<path id="Layer" fill-rule="evenodd" class="shp0" d="M280.1 42L263.4 42C261.2 40.9 259.1 39.3 258.4 35.9C257.8 33 259.3 27.9 253.9 23.5C253.9 23.5 250.6 20.2 254.1 19.4L269.9 15.4L275.6 5.3C268.7 7 244 13.3 244 13.3L238.4 24.2C238.4 24.2 251 26.7 252.2 33.4C253.2 39 249.4 40.8 248.2 41.9L213.5 41.9L205.3 52L245.5 52L254.5 42.4C254.5 42.4 258.3 52 267.4 52C267.7 52 271.7 52 271.7 52C271.7 52 280.1 42.1 280.1 42Z" />
		<g id="Layer">
			<path id="Layer" class="shp0" d="M384.7 36.4L392 48.8L398.8 37.7L383.3 9.5L346.2 9.5L341.2 19.9L376.9 19.8L376.9 24.4L337.7 25L321.9 52.4L328.5 65.1L344.8 36.4L384.7 36.4Z" />
			<path id="Layer" class="shp0" d="M419.4 42.7L402.8 72.1L398 72.1L416.8 37.1L400.6 9.5L387.1 9.5L403.3 37.8L385 72L369.3 72.2L376 84.3L408.5 84.2L426.1 52L419.4 42.7Z" />
			<path id="Layer" class="shp0" d="M353.5 54.3L360.6 40.4L347.5 40.5L330.6 68.5L347.5 99.2L361.2 98.9L344.2 69.7L346.5 66.1L366.2 99L401.2 99L406.6 88.2L373.1 88.4L353.5 54.3Z" />
			<path id="Layer" fill-rule="evenodd" class="shp1" d="M373.6 40.5C366.3 40.5 360.3 46.5 360.3 53.8C360.3 61.1 366.3 67.1 373.6 67.1C380.9 67.1 386.9 61.1 386.9 53.8C386.9 46.5 380.9 40.5 373.6 40.5Z" />
			<path id="Layer" fill-rule="evenodd" class="shp0" d="M290.5 39.4L290.5 6.7C290.5 6.2 282.1 13.8 282.1 13.8L282.1 42.7C282.1 42.7 282.7 52 294.7 52L298.9 52L307.2 41.9L293.1 41.9C291.7 42 290.5 40.9 290.5 39.4Z" />
			<path id="Layer" fill-rule="evenodd" class="shp0" d="M230.4 5.1C216.8 8.5 199.3 12.9 199.3 12.9L193 24.4C193 24.4 207.9 26.5 207.1 34.9C206.4 41.8 203.2 42.1 203.2 42.1C194.7 42.1 190.6 42.1 189.6 42.1C189.4 42.1 189.2 42.1 189.1 42C183.4 39.5 183.4 34.4 183.7 32.1C183.8 31.4 183.3 30.9 182.7 30.7C181.7 30.5 180.9 30.7 180.5 30.8C180.3 30.9 180.1 31 179.9 31.2L171.5 41.9L158.5 41.9C158.5 41.9 151.9 50.1 150.4 52L168.1 52C170 49.8 176.5 42.4 178.1 40.6C178.3 40.4 178.5 40.4 178.6 40.7C181.8 49 186.6 50.5 190.4 52.1L200.1 52.1C200.5 52.1 200.1 52.1 200.5 52.1L211.8 38.2C216.3 28 206.7 20.3 206.7 20.3C216.1 17.8 223.5 16.1 224.5 15.9L230.4 5.1Z" />
			<path id="Layer" fill-rule="evenodd" class="shp0" d="M80.3 52.1C83 43.9 84.9 50.4 85.6 52.1L120.4 52.1C122.6 49.6 129.3 42 129.3 42L87.8 42C96.7 30.8 86.7 22.1 86.7 22.1C84.5 20.4 87.8 19.7 87.8 19.7C87.8 19.7 100.6 16.3 103.3 15.5L108.7 5.1C107.5 5.4 77.2 13.6 77.2 13.6C77.2 13.6 70.9 24.9 72.1 24.5C74.3 23.8 94.7 30.2 81.2 42L68.5 42C61.3 40.5 62 32.1 62 32.1C61.8 30 60.3 30.1 59.4 30.4C59 30.5 58.6 30.8 58.3 31.2L49.2 42C49.2 42 37.8 42 37 42L28.5 52.1L46.6 52.1L55.6 42C57.6 39.5 58 42 58 42C60.6 48.8 65.1 50.7 69.2 52.1L80.3 52.1Z" />
			<path id="Layer" class="shp0" d="M107.06 23.76L112.37 18.46L117.67 23.77L112.37 29.07L107.06 23.76Z" />
			<path id="Layer" class="shp0" d="M112.1 32.1L106.8 26.9L101.6 32.1L106.8 37.4L112.1 32.1L117.4 37.4L122.6 32.1L117.4 26.9L112.1 32.1Z" />
			<path id="Layer" class="shp0" d="M266.95 30.13L272.26 24.82L277.56 30.13L272.26 35.43L266.95 30.13Z" />
			<path id="Layer" class="shp0" d="M289.09 58.98L294.39 53.67L299.69 58.98L294.39 64.28L289.09 58.98Z" />
			<path id="Layer" fill-rule="evenodd" class="shp0" d="M229.6 0.8C228.8 0.9 202.8 8.2 202.8 8.2L201.4 11L228.9 3.8L229.6 0.8Z" />
			<path id="Layer" fill-rule="evenodd" class="shp0" d="M80.7 10.7L106.8 3.7L107.9 1C107.1 1.1 81.6 8.1 81.6 8.1L80.7 10.7Z" />
		</g>
		<g id="Layer">
			<path id="Layer" fill-rule="evenodd" class="shp0" d="M145.5 17C144.3 17.9 138.3 24 138.3 24C160.3 31.4 149.1 42 149.1 42L133.7 42L125 52.1L145.7 52.1L157 38.8C163 21.7 145.5 17 145.5 17Z" />
		</g>
		<path id="Layer" fill-rule="evenodd" class="shp0" d="M39.1 20.7L41.6 17L30.5 17C30.5 17 23 17.1 20.1 24.9C20.1 24.9 19 26.1 22.5 26.9C26 27.7 35.3 33.7 26.8 42.1L11.2 42.1C11.2 42.1 3.5 39.3 7.3 31.2C7.3 31.2 3.6 31.3 2.4 33.4C1.2 35.5 -1.7 48.2 12.7 52.1L23.5 52.1L34.9 38.9C34.9 38.9 37.9 29.2 30.9 22.6C30.9 22.6 28.8 20.7 31.6 20.7C34.4 20.7 39.1 20.7 39.1 20.7Z" />
		<g id="Layer">
			<path id="Layer" class="shp0" d="M-0.1 73.9L8.1 73.9L4.7 95.9L9.7 95.9L13.1 73.9L21.3 73.9L22 69.4L0.6 69.4L-0.1 73.9Z" />
			<path id="Layer" fill-rule="evenodd" class="shp0" d="M48.6 77C49 78.7 49 80.5 48.7 82.6C48.4 84.7 47.8 86.5 46.9 88.2C46 89.8 44.9 91.3 43.6 92.5C42.3 93.7 40.8 94.6 39.1 95.3C37.4 96 35.7 96.3 33.8 96.3C31.9 96.3 30.3 96 28.8 95.3C27.3 94.6 26.1 93.7 25.2 92.5C24.2 91.3 23.6 89.9 23.2 88.2C22.8 86.5 22.8 84.6 23.1 82.6C23.4 80.6 24 78.7 24.9 77C25.8 75.3 26.9 73.9 28.2 72.7C29.6 71.5 31 70.6 32.7 69.9C34.4 69.2 36.2 68.9 38 68.9C39.9 68.9 41.5 69.2 43 69.9C44.4 70.6 45.7 71.5 46.6 72.7C47.6 73.9 48.3 75.3 48.6 77ZM43.9 78.7C43.6 77.6 43.3 76.6 42.7 75.8C42.1 75 41.4 74.4 40.5 74C39.6 73.6 38.6 73.4 37.5 73.4C36.4 73.4 35.3 73.6 34.3 74C33.3 74.4 32.4 75 31.6 75.8C30.8 76.6 30.1 77.6 29.5 78.7C28.9 79.9 28.5 81.2 28.3 82.6C28.1 84 28.1 85.3 28.3 86.5C28.5 87.6 28.8 88.6 29.4 89.4C30 90.2 30.7 90.8 31.6 91.2C32.5 91.6 33.5 91.8 34.6 91.8C35.7 91.8 36.8 91.6 37.8 91.2C38.8 90.8 39.7 90.2 40.5 89.4C41.3 88.6 41.9 87.7 42.5 86.5C43.1 85.4 43.5 84.1 43.7 82.6C43.9 81.1 43.9 79.8 43.9 78.7Z" />
			<path id="Layer" class="shp0" d="M69.9 84.5C69.7 86 69.4 87.2 69 88.2C68.6 89.1 68.1 89.9 67.6 90.4C67 90.9 66.4 91.3 65.7 91.5C65 91.7 64.1 91.8 63.2 91.8C62.3 91.8 61.5 91.7 60.8 91.5C60.1 91.3 59.6 90.9 59.2 90.4C58.8 89.9 58.5 89.1 58.4 88.2C58.3 87.3 58.4 86 58.6 84.5L60.9 69.3L56 69.3L53.7 84.5C53.6 85.4 53.5 86.3 53.4 87.2C53.3 88.1 53.3 89 53.4 89.9C53.5 90.8 53.7 91.6 54 92.4C54.3 93.2 54.9 93.8 55.6 94.4C56.3 95 57.2 95.4 58.3 95.8C59.4 96.1 60.8 96.3 62.5 96.3C64.6 96.3 66.4 96 67.8 95.5C69.3 95 70.5 94.2 71.4 93.2C72.4 92.2 73.1 91 73.6 89.5C74.1 88 74.6 86.4 74.8 84.5L77.1 69.3L72.1 69.3L69.9 84.5Z" />
			<path id="Layer" fill-rule="evenodd" class="shp0" d="M103.8 73.8C104.1 74.9 104.2 76 104 77.1C103.8 78.8 103.2 80.1 102.2 81.3C101.3 82.5 100.1 83.4 98.6 84C99.1 84.4 99.5 84.9 99.9 85.6C100.2 86.2 100.5 87 100.7 88L102.3 95.9L97 95.9L95.6 88.7C95.5 88.2 95.3 87.7 95.1 87.3C94.9 86.9 94.6 86.5 94.2 86.2C93.9 85.9 93.5 85.7 93 85.5C92.6 85.3 92 85.2 91.5 85.2L86.2 85.2L84.6 95.9L79.6 95.9L83.7 69.4L95.6 69.4C96.3 69.4 97 69.5 97.6 69.5C98.2 69.5 98.8 69.6 99.4 69.7C100 69.8 100.5 70 101 70.2C101.5 70.5 102 70.8 102.4 71.2C103.2 71.9 103.7 72.8 103.8 73.8ZM98.5 74.5C97.8 74 96.7 73.7 95.2 73.7L88.1 73.7L87 80.7L93.6 80.7C94.5 80.7 95.3 80.6 95.9 80.5C96.5 80.4 97.1 80.2 97.5 79.9C98 79.6 98.3 79.2 98.6 78.8C98.8 78.3 99 77.8 99.1 77.1C99.2 75.9 99 75.1 98.5 74.5Z" />
			<path id="Layer" class="shp0" d="M107.5 95.9L112.4 95.9L116.5 69.4L111.6 69.4L107.5 95.9Z" />
			<path id="Layer" class="shp0" d="M139.2 71.1C138.4 70.4 137.4 69.8 136.3 69.5C135.2 69.1 133.9 68.9 132.4 68.9C131 68.9 129.6 69.1 128.4 69.5C127.1 69.9 126 70.4 125.1 71.1C124.1 71.8 123.4 72.6 122.7 73.5C122.1 74.4 121.7 75.5 121.5 76.6C121.3 77.6 121.4 78.6 121.6 79.4C121.8 80.2 122.2 80.9 122.8 81.5C123.4 82.1 124.2 82.6 125.3 83.1C126.3 83.5 127.6 83.9 129 84.3C130.3 84.6 131.4 84.8 132.2 85.1C133.1 85.4 133.8 85.6 134.3 85.9C134.8 86.2 135.2 86.5 135.4 86.9C135.6 87.3 135.6 87.8 135.6 88.3C135.5 88.8 135.3 89.3 135 89.8C134.7 90.2 134.3 90.6 133.7 90.9C133.2 91.2 132.6 91.4 131.9 91.6C131.2 91.8 130.5 91.8 129.7 91.8C128.9 91.8 128.2 91.7 127.5 91.5C126.8 91.3 126.2 91 125.7 90.6C125.2 90.2 124.8 89.7 124.5 89.1C124.2 88.5 124 87.8 124 87L119 87C118.9 88.4 119 89.6 119.4 90.8C119.8 91.9 120.3 92.9 121.2 93.7C122 94.5 123.1 95.2 124.4 95.6C125.7 96 127.3 96.3 129.1 96.3C130.6 96.3 131.9 96.1 133.2 95.7C134.5 95.3 135.6 94.7 136.7 94C137.7 93.3 138.5 92.4 139.2 91.4C139.9 90.4 140.3 89.3 140.5 88.1C140.7 87.1 140.6 86.2 140.5 85.4C140.3 84.6 140 83.9 139.5 83.4C139.1 82.8 138.5 82.3 137.9 81.9C137.3 81.5 136.5 81.2 135.8 80.9C135 80.6 134.3 80.4 133.5 80.2C132.7 80 131.9 79.8 131.1 79.6C130.2 79.4 129.5 79.2 128.9 79C128.3 78.8 127.8 78.6 127.4 78.3C127 78.1 126.8 77.8 126.6 77.5C126.5 77.2 126.4 76.9 126.5 76.5C126.6 75.6 127.2 74.8 128.1 74.3C129 73.8 130.3 73.5 131.9 73.5C134.9 73.5 136.5 74.8 136.7 77.3L141.5 77.3C141.6 76 141.4 74.8 141 73.8C140.5 72.7 139.9 71.8 139.2 71.1Z" />
			<path id="Layer" class="shp0" d="M158.2 88.3L154.9 69.4L148.5 69.4L144.4 95.9L149.2 95.9L151.8 78.9L154.9 95.9L159.1 95.9L167.4 78.9L164.8 95.9L169.6 95.9L173.7 69.4L167.3 69.4L158.2 88.3Z" />
			<path id="Layer" fill-rule="evenodd" class="shp0" d="M218.8 73.6C219.1 74.5 219.2 75.5 219 76.6C218.8 77.7 218.4 78.7 217.9 79.5C217.3 80.3 216.6 81.1 215.6 81.7C216.2 82 216.7 82.4 217.1 82.8C217.6 83.3 217.9 83.8 218.1 84.3C218.3 84.8 218.4 85.4 218.5 86C218.5 86.6 218.5 87.3 218.4 87.9C218 90.5 216.8 92.5 214.9 93.9C213 95.2 210.4 95.9 207 95.9L196.8 95.9L200.9 69.4L210.6 69.4C212 69.4 213.3 69.6 214.4 69.9C215.5 70.2 216.4 70.7 217.1 71.3C217.8 71.9 218.3 72.6 218.8 73.6ZM213.2 86.2C213.1 85.8 212.9 85.4 212.5 85.1C212.1 84.9 211.6 84.6 210.9 84.5C210.3 84.4 209.4 84.3 208.3 84.3L203.5 84.3L202.4 91.3L207.6 91.3C211 91.3 212.8 90.1 213.2 87.8C213.3 87.2 213.3 86.7 213.2 86.2ZM213.7 75.5C213.6 75.1 213.3 74.8 213 74.6C212.7 74.4 212.2 74.2 211.6 74.1C211 74 210.3 73.9 209.4 73.9L205 73.9L204.1 79.8L208.8 79.8C210.3 79.8 211.5 79.6 212.3 79.1C213.1 78.7 213.6 77.9 213.8 76.8C213.9 76.3 213.9 75.9 213.7 75.5Z" />
			<path id="Layer" fill-rule="evenodd" class="shp0" d="M238.1 69.3L244.8 95.9L239.3 95.9L237.6 88.3L228.3 88.3L224.4 95.9L219.2 95.9L233.5 69.3L238.1 69.3ZM236.7 84.1L234.8 75.7L230.5 84.1L236.7 84.1Z" />
			<path id="Layer" class="shp0" d="M266 87.1L257 69.4L252.3 69.4L248.2 95.9L253 95.9L255.7 78.2L264.8 95.9L269.5 95.9L273.6 69.4L268.8 69.4L266 87.1Z" />
			<path id="Layer" class="shp0" d="M302.8 69.4L296 69.4L283.3 80.5L285 69.4L280 69.4L275.9 95.9L280.9 95.9L282.3 86.8L285.7 83.9L292.4 95.9L298.8 95.9L289.7 80.4L302.8 69.4Z" />
		</g>
	</g>
</svg>