<svg height="30" viewBox="0 0 223 44" version="1.1" xmlns="http://www.w3.org/2000/svg">
    <title>Group 3</title>
    <g id="Page-1" stroke="none" stroke-width="1" fill="none" fill-rule="evenodd">
        <g id="Green" transform="translate(-86.000000, -183.000000)">
            <g id="Group-6" transform="translate(85.999982, 55.000000)">
                <g id="Group-3" transform="translate(0.000000, 128.000000)">
                    <g id="Group-5" transform="translate(61.000018, 7.000000)" fill="#fff"
                        fill-rule="nonzero">
                        <path
                            d="M12.0184957,26.9666255 C14.215783,26.9666255 16.2244143,26.4548826 18.0443896,25.4313968 C19.864365,24.407911 21.3070284,22.9783684 22.3723798,21.1427689 C23.4377312,19.3071693 23.9704069,17.2435105 23.9704069,14.9517923 C23.9704069,12.6600742 23.4432799,10.6019778 22.3890259,8.77750309 C21.3347719,6.95302843 19.8921085,5.52904821 18.0610358,4.50556242 C16.229963,3.48207664 14.215783,2.97033375 12.0184957,2.97033375 C9.82120838,2.97033375 7.80702836,3.48207664 5.97595561,4.50556242 C4.14488286,5.52904821 2.69112207,6.95302843 1.61467324,8.77750309 C0.538224414,10.6019778 0,12.6600742 0,14.9517923 C0,17.2435105 0.538224414,19.3071693 1.61467324,21.1427689 C2.69112207,22.9783684 4.14488286,24.407911 5.97595561,25.4313968 C7.80702836,26.4548826 9.82120838,26.9666255 12.0184957,26.9666255 Z M12.0184957,21.7601978 C10.1319359,21.7601978 8.62823674,21.1427689 7.50739827,19.907911 C6.3865598,18.6730532 5.82614057,17.0210136 5.82614057,14.9517923 C5.82614057,12.8603214 6.3865598,11.2027194 7.50739827,9.9789864 C8.62823674,8.7552534 10.1319359,8.1433869 12.0184957,8.1433869 C13.8828607,8.1433869 15.3754624,8.76081582 16.4963009,9.99567367 C17.6171393,11.2305315 18.1775586,12.8825711 18.1775586,14.9517923 C18.1775586,16.9987639 17.6171393,18.645241 16.4963009,19.8912237 C15.3754624,21.1372064 13.8828607,21.7601978 12.0184957,21.7601978 Z M32.8261406,26.7330037 L32.8261406,16.6205192 C32.8261406,15.4190358 33.1424168,14.4901112 33.7749692,13.8337454 C34.4075216,13.1773795 35.2786683,12.8491965 36.3884094,12.8491965 C37.4981504,12.8491965 38.3692972,13.1773795 39.0018496,13.8337454 C39.634402,14.4901112 39.9506782,15.4190358 39.9506782,16.6205192 L39.9506782,16.6205192 L39.9506782,26.7330037 L45.6103576,26.7330037 L45.6103576,16.6205192 C45.6103576,15.4190358 45.9266338,14.4901112 46.5591862,13.8337454 C47.1917386,13.1773795 48.0628853,12.8491965 49.1726264,12.8491965 C50.2823674,12.8491965 51.1535142,13.1773795 51.7860666,13.8337454 C52.418619,14.4901112 52.7348952,15.4190358 52.7348952,16.6205192 L52.7348952,16.6205192 L52.7348952,26.7330037 L58.3945746,26.7330037 L58.3945746,15.8529048 C58.3945746,13.3609394 57.7120838,11.4140915 56.3471023,10.0123609 C54.9821208,8.61063041 53.1454994,7.90976514 50.837238,7.90976514 C49.5277435,7.90976514 48.3181258,8.23238566 47.2083847,8.8776267 C46.0986436,9.52286774 45.2219482,10.3572311 44.5782984,11.3807169 C43.9568434,10.2682324 43.0967941,9.41161928 41.9981504,8.81087763 C40.8995068,8.21013597 39.6510481,7.90976514 38.2527744,7.90976514 C37.0764488,7.90976514 36.0221948,8.13782447 35.0900123,8.59394314 C34.1578298,9.0500618 33.4032059,9.66749073 32.8261406,10.4462299 L32.8261406,10.4462299 L32.8261406,8.11001236 L27.1331689,8.11001236 L27.1331689,26.7330037 L32.8261406,26.7330037 Z M68.0826141,26.7330037 L68.0826141,16.6205192 C68.0826141,15.3745365 68.404439,14.4066749 69.0480888,13.7169345 C69.6917386,13.0271941 70.5573366,12.6823239 71.6448829,12.6823239 C72.7324291,12.6823239 73.5980271,13.0271941 74.2416769,13.7169345 C74.8853268,14.4066749 75.2071517,15.3745365 75.2071517,16.6205192 L75.2071517,16.6205192 L75.2071517,26.7330037 L80.8668311,26.7330037 L80.8668311,15.8529048 C80.8668311,13.3831891 80.2176326,11.4419036 78.9192355,10.0290482 C77.6208385,8.61619283 75.8840937,7.90976514 73.7090012,7.90976514 C72.4882861,7.90976514 71.3896424,8.14894932 70.4130703,8.62731768 C69.4364982,9.10568603 68.6596794,9.75648949 68.0826141,10.5797281 L68.0826141,10.5797281 L68.0826141,8.11001236 L62.3896424,8.11001236 L62.3896424,26.7330037 L68.0826141,26.7330037 Z M87.6917386,6.17428925 C88.6683107,6.17428925 89.472873,5.87948084 90.1054254,5.28986403 C90.7379778,4.70024722 91.054254,3.97156984 91.054254,3.10383189 C91.054254,2.21384425 90.7379778,1.47404203 90.1054254,0.884425216 C89.472873,0.294808405 88.6683107,0 87.6917386,0 C86.6929716,0 85.877312,0.294808405 85.2447596,0.884425216 C84.6122072,1.47404203 84.2959309,2.21384425 84.2959309,3.10383189 C84.2959309,3.97156984 84.6122072,4.70024722 85.2447596,5.28986403 C85.877312,5.87948084 86.6929716,6.17428925 87.6917386,6.17428925 Z M90.5215783,26.7330037 L90.5215783,8.11001236 L84.8286067,8.11001236 L84.8286067,26.7330037 L90.5215783,26.7330037 Z M102.839704,27 C105.147965,27 107.090012,26.3770087 108.665845,25.131026 C110.241677,23.8850433 111.273736,22.1718171 111.762022,19.9913473 L111.762022,19.9913473 L105.702836,19.9913473 C105.192355,21.4153276 104.204686,22.1273177 102.739827,22.1273177 C101.696671,22.1273177 100.864365,21.7212608 100.24291,20.9091471 C99.621455,20.0970334 99.3107275,18.934487 99.3107275,17.421508 C99.3107275,15.908529 99.621455,14.7459827 100.24291,13.933869 C100.864365,13.1217553 101.696671,12.7156984 102.739827,12.7156984 C104.204686,12.7156984 105.192355,13.4276885 105.702836,14.8516687 L105.702836,14.8516687 L111.762022,14.8516687 C111.273736,12.6266996 110.247226,10.9023486 108.682491,9.67861557 C107.117756,8.45488257 105.17016,7.84301607 102.839704,7.84301607 C101.019729,7.84301607 99.4050555,8.23238566 97.9956843,9.01112485 C96.5863132,9.78986403 95.4876695,10.9023486 94.6997534,12.3485785 C93.9118372,13.7948084 93.5178792,15.4857849 93.5178792,17.421508 C93.5178792,19.3572311 93.9118372,21.0482077 94.6997534,22.4944376 C95.4876695,23.9406675 96.5863132,25.053152 97.9956843,25.8318912 C99.4050555,26.6106304 101.019729,27 102.839704,27 Z M121.816276,27 C123.125771,27 124.274353,26.7330037 125.262022,26.1990111 C126.249692,25.6650185 127.020962,24.9641533 127.575832,24.0964153 L127.575832,24.0964153 L127.575832,26.7330037 L133.268804,26.7330037 L133.268804,8.11001236 L127.575832,8.11001236 L127.575832,10.7466007 C127.043157,9.87886279 126.282984,9.17799753 125.295314,8.64400494 C124.307645,8.11001236 123.159063,7.84301607 121.849568,7.84301607 C120.318126,7.84301607 118.930949,8.23238566 117.688039,9.01112485 C116.445129,9.78986403 115.463009,10.9023486 114.741677,12.3485785 C114.020345,13.7948084 113.659679,15.4746601 113.659679,17.3881335 C113.659679,19.3016069 114.020345,20.987021 114.741677,22.4443758 C115.463009,23.9017305 116.445129,25.0253399 117.688039,25.815204 C118.930949,26.605068 120.307028,27 121.816276,27 Z M123.51418,22.0271941 C122.382244,22.0271941 121.422318,21.6100124 120.634402,20.7756489 C119.846486,19.9412855 119.452528,18.8121137 119.452528,17.3881335 C119.452528,15.9641533 119.846486,14.8461063 120.634402,14.0339926 C121.422318,13.2218789 122.382244,12.815822 123.51418,12.815822 C124.646116,12.815822 125.606042,13.2274413 126.393958,14.0506799 C127.181874,14.8739184 127.575832,15.9975278 127.575832,17.421508 C127.575832,18.8454883 127.181874,19.9690977 126.393958,20.7923362 C125.606042,21.6155748 124.646116,22.0271941 123.51418,22.0271941 Z M143.090012,26.7330037 L143.090012,18.0889988 C143.090012,16.5537701 143.445129,15.4802225 144.155364,14.868356 C144.865598,14.2564895 145.930949,13.9505562 147.351418,13.9505562 L147.351418,13.9505562 L148.916153,13.9505562 L148.916153,7.90976514 C147.695438,7.90976514 146.585697,8.20457355 145.58693,8.79419036 C144.588163,9.38380717 143.755857,10.1903585 143.090012,11.2138443 L143.090012,11.2138443 L143.090012,8.11001236 L137.397041,8.11001236 L137.397041,26.7330037 L143.090012,26.7330037 Z M162,26.7330037 L162,21.8936959 L159.969174,21.8936959 C159.347719,21.8936959 158.903822,21.7713226 158.637485,21.526576 C158.371147,21.2818294 158.237978,20.881335 158.237978,20.3250927 L158.237978,20.3250927 L158.237978,12.8491965 L161.966708,12.8491965 L161.966708,8.11001236 L158.237978,8.11001236 L158.237978,3.5710754 L152.545006,3.5710754 L152.545006,8.11001236 L150.281134,8.11001236 L150.281134,12.8491965 L152.545006,12.8491965 L152.545006,20.2583436 C152.545006,22.5500618 153.122072,24.2021014 154.276202,25.2144623 C155.430333,26.2268232 157.039457,26.7330037 159.103576,26.7330037 L159.103576,26.7330037 L162,26.7330037 Z"
                            id="Omnicart"></path>
                    </g>
                    <path
                        d="M27.1229972,0 C39.2053322,0 49,9.8497355 49,22 C49,34.1502645 39.2053322,44 27.1229972,44 C15.0406623,44 5.2459945,34.1502645 5.2459945,22 C5.2459945,16.7631054 7.06555251,11.9535807 10.1035907,8.17588318 C3.91839392,6.28242555 -3.68992195,0.00569167486 2.00984674,0.00569167486 L26.6906443,0.00421060152 C26.8344264,0.00140783386 26.9785483,0 27.1229972,0 Z M27.1229972,9.32203398 C20.1602958,9.32203398 14.515911,14.9981527 14.515911,22 C14.515911,29.0018473 20.1602958,34.677966 27.1229972,34.677966 C34.0856987,34.677966 39.7300835,29.0018473 39.7300835,22 C39.7300835,14.9981527 34.0856987,9.32203398 27.1229972,9.32203398 Z"
                        id="Combined-Shape" fill="#04B261"></path>
                </g>
            </g>
        </g>
    </g>
</svg>