<svg width="40" height="40" viewBox="0 0 40 40" fill="none" xmlns="http://www.w3.org/2000/svg">
<path fill-rule="evenodd" clip-rule="evenodd" d="M17.3648 27.2504C16.8974 28.4575 16.295 29.0318 15.5889 29.1238C14.8829 29.0318 14.2799 28.4575 13.813 27.2504C11.9776 23.2086 10.1527 19.1861 8.36188 15.1256C7.79417 13.838 7.22756 12.5549 6.6637 11.2806C6.12355 10.0592 5.66662 8.91711 6.27292 7.58106C6.78992 6.44178 8.16291 5.75666 9.95203 5.29753C8.46275 5.22422 7.09252 5.38627 5.89095 5.88233C4.78695 6.33815 3.82624 7.07508 3.04743 8.17082C2.41523 8.95955 1.9335 9.8486 1.74886 10.935C1.64579 11.5424 1.63531 12.2115 1.74279 12.9595C1.89708 14.0323 2.23374 14.7704 2.64639 15.675L2.64641 15.675C2.71285 15.8207 2.78127 15.9707 2.85121 16.1271C3.04312 16.5563 3.231 16.9811 3.41805 17.404L3.41811 17.4042L3.41812 17.4042C3.77633 18.2142 4.13145 19.0172 4.50585 19.8304C4.83666 20.5703 5.16556 21.2769 5.49804 21.9911L5.49809 21.9912C5.67136 22.3634 5.8456 22.7377 6.02158 23.1199C6.7315 24.6609 7.43976 26.1993 8.14251 27.7288C8.24355 27.9487 8.34354 28.1702 8.44372 28.3921C9.41956 30.5535 10.4139 32.7559 12.5833 33.9995C13.4724 34.5094 14.4596 34.7536 15.5889 34.715C16.7183 34.753 17.7054 34.5088 18.5945 33.9995C19.1256 33.6951 19.5863 33.3331 19.9936 32.9283C20.4007 33.3326 20.8608 33.6945 21.3918 33.9986C22.2809 34.5084 23.268 34.7526 24.3974 34.714C25.5267 34.752 26.5139 34.5079 27.4029 33.9986C29.5531 32.7661 30.5485 30.5912 31.5164 28.4488C31.9766 27.565 32.3833 26.6938 32.7445 25.9199C32.8552 25.6827 32.9617 25.4546 33.0641 25.2382C33.9123 23.4456 34.6789 21.6798 35.4455 19.9141L35.5069 19.7727C35.8178 19.098 36.1053 18.4341 36.3897 17.7773L36.3899 17.7768C36.6393 17.2007 36.8865 16.63 37.145 16.0622C37.366 15.5771 37.5909 15.0899 37.8224 14.601C39.3955 11.2768 37.1125 7.51394 34.0386 7.9874C34.4883 8.91173 33.6775 10.8001 32.6849 12.9789C32.4383 13.5202 32.1883 14.0553 31.9372 14.5927C31.6676 15.1699 31.3967 15.7499 31.1272 16.3433C30.8957 16.838 30.6806 17.2958 30.495 17.6908L30.4942 17.6923C30.3226 18.0574 30.1763 18.3687 30.0657 18.6058C29.8238 19.1231 29.5822 19.6416 29.3421 20.1566C27.8515 23.3547 26.4232 26.4193 25.3873 28.23C24.7468 29.3488 24.2012 29.0137 23.5497 28.1985C23.3926 28.0023 23.2438 27.7995 23.0966 27.5955L23.0661 27.6618C23.7587 26.1544 24.4562 24.6384 25.1562 23.1199C25.6833 21.9757 26.2116 20.8297 26.7398 19.6838C27.6024 17.8125 28.4648 15.9417 29.3215 14.08L29.3876 13.9363L29.3877 13.936C29.9536 12.7056 30.5173 11.4799 31.0764 10.2603C31.6331 9.04664 32.186 7.94759 33.5887 7.51657C34.7848 7.14894 36.2074 7.72381 37.7369 8.75893C36.8048 7.59484 35.7758 6.67603 34.6084 6.10445C33.5358 5.57973 32.3469 5.34824 31.0103 5.49099C30.0005 5.54005 29.0156 5.76824 28.0797 6.34973C27.5566 6.67492 27.0484 7.11035 26.5595 7.68633C25.8585 8.51272 25.5286 9.25367 25.1241 10.1619L25.1241 10.162C25.0589 10.3084 24.9918 10.4591 24.9209 10.6153L22.9256 15.0087L20.9304 19.4022C19.7409 22.0181 18.5526 24.6345 17.3648 27.2504ZM19.5533 19.7528L19.5913 19.8393L16.4188 26.5091C15.6654 24.5749 14.4914 21.9577 13.2746 19.2453C13.042 18.7269 12.8079 18.205 12.5749 17.6837C12.4748 17.4597 12.3455 17.1691 12.1944 16.8295C12.0102 16.4154 11.7935 15.9285 11.5579 15.4007C11.2853 14.8087 11.0238 14.2245 10.7635 13.643C10.5212 13.1017 10.2799 12.5627 10.0317 12.022C9.03245 9.84594 8.13458 7.99784 7.14136 7.73327C8.79379 5.09809 13.1338 5.83226 14.6192 9.19665C14.8374 9.69106 15.0585 10.18 15.2811 10.6644C15.5391 11.2248 15.806 11.7787 16.0755 12.3376C16.3894 12.9887 16.7066 13.6467 17.0168 14.3303L17.0968 14.4967C17.9267 16.2226 18.7566 17.9484 19.5533 19.7528Z" fill="#fff"/>
</svg>
