<svg viewBox="0 0 107 24" fill="none" xmlns="http://www.w3.org/2000/svg">
    <path
        d="M94.8047 5.72152C94.8047 2.56161 97.3663 0 100.526 0H106.407V18.2771C106.407 21.437 103.845 23.9986 100.685 23.9986H94.8047V5.72152Z"
        fill="#12C480"></path>
    <path fill-rule="evenodd" clip-rule="evenodd"
        d="M105.391 1.01587H100.526C97.9273 1.01587 95.8206 3.12266 95.8206 5.72152V22.9827H100.685C103.284 22.9827 105.391 20.8759 105.391 18.2771V1.01587ZM100.526 0C97.3663 0 94.8047 2.56161 94.8047 5.72152V23.9986H100.685C103.845 23.9986 106.407 21.437 106.407 18.2771V0H100.526Z"
        fill="white"></path>
    <path
        d="M98.8545 13.3516C98.8545 10.1917 96.2929 7.6301 93.133 7.6301H88.198C87.6696 7.6301 87.2419 8.05986 87.2444 8.58831L87.3193 24H98.8545V13.3516Z"
        fill="#12C480"></path>
    <path fill-rule="evenodd" clip-rule="evenodd"
        d="M88.2606 8.64597H93.133C95.7318 8.64597 97.8386 10.7528 97.8386 13.3516V22.9841H88.3302L88.2606 8.64597ZM87.3193 24L87.2444 8.58831C87.2419 8.05986 87.6696 7.6301 88.198 7.6301H93.133C96.2929 7.6301 98.8545 10.1917 98.8545 13.3516V24H87.3193Z"
        fill="white"></path>
    <path
        d="M91.3076 19.9464C91.3076 17.4887 89.3153 15.4963 86.8575 15.4963H80.6682C80.1381 15.4963 79.7097 15.9287 79.7146 16.4588L79.7439 19.5906C79.7667 22.032 81.7523 23.9991 84.1937 23.9991H91.3076V19.9464Z"
        fill="#12C480"></path>
    <path fill-rule="evenodd" clip-rule="evenodd"
        d="M80.7311 16.5122H86.8575C88.7542 16.5122 90.2917 18.0498 90.2917 19.9464V22.9833H84.1937C82.3096 22.9833 80.7773 21.4652 80.7597 19.5811L80.7311 16.5122ZM86.8575 15.4963C89.3153 15.4963 91.3076 17.4887 91.3076 19.9464V23.9991H84.1937C81.7523 23.9991 79.7667 22.032 79.7439 19.5906L79.7146 16.4588C79.7097 15.9287 80.1381 15.4963 80.6682 15.4963H86.8575Z"
        fill="white"></path>
    <path
        d="M73.1924 4.29731V3.42856H64.4307C63.421 3.44787 62.4593 3.86308 61.7528 4.58474C61.0463 5.30639 60.6515 6.27671 60.6537 7.28662V11.8957V12.2417L70.343 12.2933V14.2591C70.344 14.4073 70.3155 14.5541 70.2592 14.6912C70.203 14.8283 70.12 14.9529 70.0152 15.0577C69.9104 15.1626 69.7859 15.2456 69.6488 15.3019C69.5116 15.3581 69.3647 15.3866 69.2165 15.3856H55.1758C55.1757 16.1604 55.4809 16.9039 56.0253 17.4551C56.5697 18.0064 57.3094 18.321 58.0841 18.3307H70.343C71.1052 18.3288 71.8356 18.0245 72.3739 17.4848C72.9122 16.9451 73.2145 16.214 73.2145 15.4518V9.47333H63.5178V7.26451C63.5178 7.01261 63.6178 6.77107 63.7959 6.59295C63.9741 6.41483 64.2156 6.31469 64.4675 6.31469H71.2339C71.4955 6.3128 71.7542 6.25893 71.9948 6.15615C72.2354 6.05336 72.4532 5.90366 72.6354 5.71593C72.8177 5.52819 72.9608 5.30608 73.0564 5.06252C73.152 4.81897 73.1982 4.55889 73.1924 4.29731Z"
        fill="#2C2C2E"></path>
    <path
        d="M20.8295 4.29731V3.42856H12.0458C11.036 3.44787 10.0743 3.86308 9.36779 4.58474C8.66128 5.30639 8.26656 6.27671 8.26868 7.28662V11.8957V12.2417L17.958 12.2933V14.2591C17.959 14.4073 17.9305 14.5541 17.8743 14.6912C17.818 14.8283 17.7351 14.9529 17.6303 15.0577C17.5255 15.1626 17.4009 15.2456 17.2638 15.3019C17.1267 15.3581 16.9797 15.3866 16.8315 15.3856H2.90125C2.51655 15.3856 2.13568 15.462 1.78082 15.6105C1.42595 15.759 1.10418 15.9767 0.834216 16.2508C0.564255 16.5248 0.351505 16.8498 0.208346 17.2069C0.0651862 17.564 -0.00552196 17.9461 0.000336414 18.3307H17.958C18.7203 18.3288 19.4506 18.0245 19.9889 17.4848C20.5272 16.9451 20.8295 16.214 20.8295 15.4518V9.47333H11.1328V7.26451C11.1328 7.01261 11.2328 6.77107 11.411 6.59295C11.5891 6.41483 11.8307 6.31469 12.0826 6.31469H18.8489C19.1124 6.31574 19.3735 6.26391 19.6166 6.16244C19.8598 6.06096 20.0802 5.91187 20.2648 5.72384C20.4494 5.5358 20.5945 5.31275 20.6915 5.06774C20.7885 4.82272 20.8354 4.56075 20.8295 4.29731Z"
        fill="#2C2C2E"></path>
    <path
        d="M45.6943 18.2865V15.4665H56.5764C56.5745 16.2073 56.2789 16.9171 55.7544 17.4402C55.2299 17.9633 54.5194 18.257 53.7786 18.257L45.6943 18.2865Z"
        fill="#2C2C2E"></path>
    <path
        d="M19.4675 15.4665H26.6756V16.8877C26.6756 17.2587 26.5282 17.6145 26.2658 17.8768C26.0035 18.1392 25.6477 18.2865 25.2767 18.2865H22.1328C21.4069 18.2615 20.7201 17.9515 20.2212 17.4237C19.7224 16.8959 19.4515 16.1926 19.4675 15.4665Z"
        fill="#2C2C2E"></path>
    <path
        d="M26.6748 15.4665H31.5268V16.6225C31.5249 17.0671 31.3474 17.4931 31.033 17.8075C30.7186 18.1219 30.2928 18.2993 29.8481 18.3012H28.4934C27.4773 18.2865 26.6748 17.0053 26.6748 15.4665Z"
        fill="#2C2C2E"></path>
    <path
        d="M31.5273 15.4665H36.4236V16.998C36.4236 17.3398 36.2878 17.6676 36.0462 17.9092C35.8045 18.1508 35.4768 18.2865 35.1351 18.2865H33.3165C32.3299 18.2865 31.5273 17.0053 31.5273 15.4665Z"
        fill="#2C2C2E"></path>
    <path
        d="M35.0108 18.2865V12.2565C35.0088 11.8871 35.0797 11.521 35.2192 11.179C35.3588 10.837 35.5643 10.5259 35.8241 10.2633C36.0839 10.0008 36.3929 9.7919 36.7334 9.64877C37.0739 9.50564 37.4393 9.43104 37.8086 9.42911V15.4591C37.8105 15.8285 37.7397 16.1946 37.6002 16.5366C37.4606 16.8786 37.2551 17.1897 36.9953 17.4523C36.7355 17.7148 36.4265 17.9237 36.086 18.0668C35.7455 18.21 35.3801 18.2846 35.0108 18.2865Z"
        fill="#2C2C2E"></path>
    <path
        d="M30.128 18.2791V12.2565C30.1251 11.8875 30.195 11.5215 30.3338 11.1796C30.4725 10.8376 30.6774 10.5263 30.9366 10.2637C31.1958 10.0011 31.5043 9.79217 31.8444 9.64895C32.1845 9.50573 32.5495 9.43103 32.9185 9.42911V15.4518C32.9224 16.1964 32.6308 16.9124 32.1077 17.4424C31.5846 17.9724 30.8727 18.2733 30.128 18.2791Z"
        fill="#2C2C2E"></path>
    <path
        d="M53.7774 18.2423V12.2049C53.7764 11.8365 53.848 11.4716 53.9881 11.1309C54.1281 10.7901 54.334 10.4803 54.5938 10.2191C54.8536 9.95797 55.1623 9.75056 55.5022 9.6087C55.8422 9.46683 56.2068 9.39324 56.5752 9.39227V15.393C56.58 15.7642 56.5114 16.1326 56.3731 16.4771C56.2349 16.8216 56.0298 17.1354 55.7697 17.4003C55.5096 17.6652 55.1997 17.876 54.8577 18.0205C54.5158 18.165 54.1486 18.2404 53.7774 18.2423Z"
        fill="#2C2C2E"></path>
    <path
        d="M25.2842 18.2791V12.2491C25.2823 11.8798 25.3531 11.5136 25.4927 11.1717C25.6322 10.8297 25.8378 10.5185 26.0976 10.256C26.3574 9.99345 26.6663 9.78454 27.0068 9.64141C27.3473 9.49828 27.7127 9.42368 28.0821 9.42175V15.4518C28.084 15.8211 28.0132 16.1873 27.8736 16.5292C27.7341 16.8712 27.5285 17.1824 27.2687 17.4449C27.0089 17.7074 26.6999 17.9163 26.3594 18.0595C26.0189 18.2026 25.6536 18.2772 25.2842 18.2791Z"
        fill="#2C2C2E"></path>
    <path
        d="M52.9453 21.2021H58.2685C58.2685 21.9442 57.9738 22.6558 57.4491 23.1805C56.9244 23.7052 56.2127 24 55.4707 24H50.1475C50.1475 23.6326 50.2198 23.2688 50.3604 22.9294C50.501 22.5899 50.7071 22.2814 50.9669 22.0216C51.2267 21.7618 51.5352 21.5557 51.8746 21.4151C52.2141 21.2745 52.5779 21.2021 52.9453 21.2021Z"
        fill="#2C2C2E"></path>
    <path
        d="M49.3744 9.42175H42.4166C41.7096 9.44288 41.0389 9.73977 40.5477 10.2488C40.0566 10.7578 39.784 11.4386 39.7881 12.1459V18.2865H46.5839V20.0461C46.5839 20.3468 46.4645 20.6354 46.2518 20.848C46.0392 21.0606 45.7508 21.18 45.4501 21.18H42.6449C42.2743 21.179 41.9072 21.2513 41.5646 21.3927C41.222 21.534 40.9108 21.7418 40.6487 22.0038C40.3867 22.2659 40.179 22.5771 40.0376 22.9197C39.8962 23.2622 39.824 23.6294 39.8249 24H46.2305C47.065 23.998 47.8646 23.6652 48.454 23.0744C49.0434 22.4837 49.3744 21.6832 49.3744 20.8487V9.42175ZM42.5786 15.4665V13.589C42.5786 13.4188 42.6121 13.2504 42.6772 13.0932C42.7424 12.936 42.8378 12.7931 42.9581 12.6728C43.0785 12.5525 43.2213 12.457 43.3785 12.3918C43.5358 12.3267 43.7043 12.2933 43.8744 12.2933H46.5839V15.4665H42.5786Z"
        fill="#2C2C2E"></path>
</svg>