<svg xmlns="http://www.w3.org/2000/svg" width="178" height="62.118" viewBox="0 0 178 62.118"><defs><style>.a,.b{fill:#000064;}.a,.c{fill-rule:evenodd;}.c{fill:#fd781e;}</style></defs><g transform="translate(59.052)"><path class="a" d="M-200.945,86.571h19.825v8.5h-8.5v8.5h5.664v8.5h-5.664v18.66h-11.328Z" transform="translate(200.945 -86.571)"></path><rect class="b" width="11.328" height="35.653" transform="translate(22.657 8.496)"></rect><path class="a" d="M-94.324,108.524l-.165,4.028a8.351,8.351,0,0,1,2.887-3.023,7.611,7.611,0,0,1,3.941-1,7.366,7.366,0,0,1,4.564,1.34,5.9,5.9,0,0,1,2.282,3.368A31.2,31.2,0,0,1-80.3,120v24.174H-91.657V120.862a34.3,34.3,0,0,0-.184-5.118c-.156-.549-.448-.819-1.19-.819a1.207,1.207,0,0,0-1.332.939,31.441,31.441,0,0,0-.126,5.05v23.262h-11.328V108.524Z" transform="translate(142.635 -100.027)"></path><path class="a" d="M52.124,93.889l-.193,3.87a10.189,10.189,0,0,1,3.2-2.912,7.772,7.772,0,0,1,3.813-.958,7.076,7.076,0,0,1,4.372,1.377,5.8,5.8,0,0,1,2.292,3.181,28.244,28.244,0,0,1,.458,6.112v13.392a29.6,29.6,0,0,1-.577,7.023,5.852,5.852,0,0,1-2.365,3.33,7.374,7.374,0,0,1-4.317,1.237,7.511,7.511,0,0,1-3.73-.958,10.264,10.264,0,0,1-3.144-2.856v9.478H40.6V93.889ZM54.778,105.2a18.267,18.267,0,0,0-.248-4.065c-.156-.474-.6-.707-1.347-.707-.724,0-.73.149-.94.7a14.543,14.543,0,0,0-.312,3.954v13.141a15.155,15.155,0,0,0,.321,4.084c.22.549.235.94.959.94.706,0,1.136-.251,1.31-.753a14.827,14.827,0,0,0,.257-3.637Z" transform="translate(52.884 -91.057)"></path><path class="c" d="M-7.082,86.571v28.568A52.668,52.668,0,0,1-7.4,122.19a9.239,9.239,0,0,1-1.728,4.176,9.86,9.86,0,0,1-4.17,3.247,15.558,15.558,0,0,1-6.113,1.107,16.862,16.862,0,0,1-6.865-1.312,10.363,10.363,0,0,1-4.455-3.4,9.271,9.271,0,0,1-1.572-4.437c-.174-1.554-.266-4.828-.266-9.8V86.571h11.328v32.168a13.481,13.481,0,0,0,.3,3.693c.2.54.435.809,1.05.809a1.087,1.087,0,0,0,1.178-.884,17.152,17.152,0,0,0,.3-4.187v-31.6Z" transform="translate(97.737 -86.571)"></path><rect class="b" width="11.328" height="5.664" transform="translate(22.657)"></rect><path class="b" d="M-188.856,224.709H-199.2V211.079h10.023v2.411h-7.232v2.866h6.644v2.411h-6.644V222.3h7.555Z" transform="translate(199.876 -162.89)"></path><path class="b" d="M-128.239,224.709h-2.714l-4.594-13.629h3.056l2.923,10.326h.038l2.961-10.326h2.961Z" transform="translate(160.858 -162.89)"></path><path class="b" d="M-50.205,224.709H-60.551V211.079h10.023v2.411H-57.76v2.866h6.644v2.411H-57.76V222.3h7.555Z" transform="translate(114.888 -162.89)"></path><path class="b" d="M21.43,224.709H18.583l-5.562-9.719h-.038v9.719H10.326V211.079h3l5.41,9.491h.038v-9.491H21.43Z" transform="translate(71.443 -162.89)"></path><path class="b" d="M88.833,213.49H84.714v11.219H81.866V213.49H77.747v-2.411H88.833Z" transform="translate(30.116 -162.89)"></path></g><g transform="translate(0 0)"><g transform="translate(21.451 23.486)"><path class="a" d="M-294.87,148.891a1.625,1.625,0,0,0-1.612-1.637,1.625,1.625,0,0,0-1.613,1.637,1.626,1.626,0,0,0,1.613,1.637A1.625,1.625,0,0,0-294.87,148.891Z" transform="translate(298.096 -147.254)"></path><path class="a" d="M-271.906,148.891a1.625,1.625,0,0,0-1.612-1.637,1.625,1.625,0,0,0-1.613,1.637,1.625,1.625,0,0,0,1.613,1.637A1.625,1.625,0,0,0-271.906,148.891Z" transform="translate(284.02 -147.254)"></path></g><g transform="translate(21.153)"><path class="a" d="M-295.979,109.011a1.392,1.392,0,0,1-1.024,1.67,1.369,1.369,0,0,1-1.645-1.039,8.507,8.507,0,0,1-.218-1.9,8.166,8.166,0,0,1,1.371-4.558,6.24,6.24,0,0,1,3.695-2.651,5.606,5.606,0,0,1,1.289-.152,5.607,5.607,0,0,1,1.289.152,6.241,6.241,0,0,1,3.695,2.651,8.169,8.169,0,0,1,1.37,4.558,8.506,8.506,0,0,1-.217,1.9,1.37,1.37,0,0,1-1.645,1.039,1.391,1.391,0,0,1-1.023-1.67,5.7,5.7,0,0,0,.143-1.273,5.338,5.338,0,0,0-.878-2.981,3.532,3.532,0,0,0-2.066-1.52,2.89,2.89,0,0,0-.668-.075,2.892,2.892,0,0,0-.668.075,3.532,3.532,0,0,0-2.066,1.52,5.335,5.335,0,0,0-.878,2.981A5.7,5.7,0,0,0-295.979,109.011Z" transform="translate(298.866 -95.034)"></path><path class="a" d="M-289.777,95.966a4.672,4.672,0,0,0,4.628-4.7,4.672,4.672,0,0,0-4.628-4.7,4.673,4.673,0,0,0-4.629,4.7A4.673,4.673,0,0,0-289.777,95.966Z" transform="translate(296.132 -86.571)"></path><path class="c" d="M-288.34,96.5a3.757,3.757,0,0,0,3.721-3.777,3.756,3.756,0,0,0-3.721-3.776,3.756,3.756,0,0,0-3.721,3.776A3.757,3.757,0,0,0-288.34,96.5Z" transform="translate(294.695 -88.03)"></path></g><g transform="translate(21.165 46.434)"><path class="a" d="M-289.012,208.252a1.391,1.391,0,0,1,1.024-1.67,1.369,1.369,0,0,1,1.645,1.038,8.51,8.51,0,0,1,.218,1.9,8.168,8.168,0,0,1-1.371,4.559,6.239,6.239,0,0,1-3.695,2.65,5.589,5.589,0,0,1-1.289.152,5.592,5.592,0,0,1-1.29-.152,6.241,6.241,0,0,1-3.695-2.65,8.171,8.171,0,0,1-1.371-4.559,8.53,8.53,0,0,1,.217-1.9,1.37,1.37,0,0,1,1.645-1.038,1.391,1.391,0,0,1,1.023,1.67,5.7,5.7,0,0,0-.142,1.273,5.334,5.334,0,0,0,.878,2.982,3.533,3.533,0,0,0,2.066,1.519,2.89,2.89,0,0,0,.668.075,2.892,2.892,0,0,0,.668-.075,3.533,3.533,0,0,0,2.066-1.519,5.337,5.337,0,0,0,.878-2.982A5.694,5.694,0,0,0-289.012,208.252Z" transform="translate(298.835 -206.546)"></path><path class="a" d="M-289.746,232.189a4.663,4.663,0,0,1-4.628-4.7,4.663,4.663,0,0,1,4.628-4.7,4.663,4.663,0,0,1,4.628,4.7A4.663,4.663,0,0,1-289.746,232.189Z" transform="translate(296.1 -216.505)"></path><path class="c" d="M-288.309,232.727a3.749,3.749,0,0,1-3.721-3.777,3.749,3.749,0,0,1,3.721-3.776,3.749,3.749,0,0,1,3.721,3.776A3.749,3.749,0,0,1-288.309,232.727Z" transform="translate(294.664 -217.964)"></path></g><path class="a" d="M-310.96,161.852a.9.9,0,0,1,.891-.9.9.9,0,0,1,.891.9,9.442,9.442,0,0,0,2.71,6.648,9.156,9.156,0,0,0,6.543,2.748v0a9.159,9.159,0,0,0,6.543-2.752,9.443,9.443,0,0,0,2.71-6.648.9.9,0,0,1,.891-.9.9.9,0,0,1,.891.9,11.241,11.241,0,0,1-3.232,7.913,10.92,10.92,0,0,1-7.8,3.279v0a10.921,10.921,0,0,1-7.8-3.283A11.241,11.241,0,0,1-310.96,161.852Z" transform="translate(327.432 -132.164)"></path><g transform="translate(38.243 13.229)"><path class="a" d="M-252.382,130.251a1.391,1.391,0,0,1-1.958-.052,1.369,1.369,0,0,1,.077-1.944,8.5,8.5,0,0,1,1.54-1.141,8.167,8.167,0,0,1,4.634-1.092,6.238,6.238,0,0,1,4.142,1.874,5.587,5.587,0,0,1,.776,1.041,5.6,5.6,0,0,1,.513,1.192,6.239,6.239,0,0,1-.448,4.525,8.166,8.166,0,0,1-3.263,3.467,8.5,8.5,0,0,1-1.758.764,1.37,1.37,0,0,1-1.722-.905,1.392,1.392,0,0,1,.934-1.722,5.69,5.69,0,0,0,1.174-.513,5.339,5.339,0,0,0,2.143-2.251,3.533,3.533,0,0,0,.283-2.549,2.908,2.908,0,0,0-.269-.616,2.908,2.908,0,0,0-.4-.541,3.532,3.532,0,0,0-2.348-1.029,5.335,5.335,0,0,0-3.021.73A5.688,5.688,0,0,0-252.382,130.251Z" transform="translate(254.708 -123.971)"></path><path class="a" d="M-234.93,127.745a4.672,4.672,0,0,0,6.382,1.66,4.672,4.672,0,0,0,1.754-6.357,4.672,4.672,0,0,0-6.382-1.66A4.673,4.673,0,0,0-234.93,127.745Z" transform="translate(242.959 -120.753)"></path><path class="c" d="M-232.68,128.726a3.756,3.756,0,0,0,5.131,1.334,3.756,3.756,0,0,0,1.41-5.11,3.756,3.756,0,0,0-5.131-1.334A3.756,3.756,0,0,0-232.68,128.726Z" transform="translate(241.506 -122.195)"></path></g><g transform="translate(0.006 33.912)"><path class="a" d="M-331.944,182.888a1.391,1.391,0,0,1,1.958.051,1.369,1.369,0,0,1-.077,1.944,8.506,8.506,0,0,1-1.54,1.141,8.167,8.167,0,0,1-4.634,1.092,6.238,6.238,0,0,1-4.142-1.874,5.6,5.6,0,0,1-.776-1.041,5.6,5.6,0,0,1-.513-1.192,6.241,6.241,0,0,1,.448-4.525,8.169,8.169,0,0,1,3.263-3.467,8.5,8.5,0,0,1,1.758-.763,1.369,1.369,0,0,1,1.722.905,1.391,1.391,0,0,1-.934,1.721,5.7,5.7,0,0,0-1.174.513,5.337,5.337,0,0,0-2.143,2.251,3.529,3.529,0,0,0-.283,2.549,2.9,2.9,0,0,0,.268.616,2.905,2.905,0,0,0,.4.54A3.532,3.532,0,0,0-336,184.379a5.332,5.332,0,0,0,3.021-.73A5.707,5.707,0,0,0-331.944,182.888Z" transform="translate(346.396 -174.192)"></path><path class="a" d="M-352.892,195.878a4.664,4.664,0,0,1,1.754-6.357,4.663,4.663,0,0,1,6.382,1.66,4.663,4.663,0,0,1-1.754,6.357A4.663,4.663,0,0,1-352.892,195.878Z" transform="translate(353.505 -183.197)"></path><path class="c" d="M-350.641,196.861a3.749,3.749,0,0,1,1.41-5.11,3.749,3.749,0,0,1,5.131,1.334,3.749,3.749,0,0,1-1.41,5.11A3.748,3.748,0,0,1-350.641,196.861Z" transform="translate(352.051 -184.64)"></path></g><g transform="translate(38.249 33.902)"><path class="a" d="M-248.9,176.854a1.391,1.391,0,0,1-.934-1.721,1.37,1.37,0,0,1,1.722-.905,8.513,8.513,0,0,1,1.758.764,8.165,8.165,0,0,1,3.262,3.466,6.24,6.24,0,0,1,.448,4.525,5.575,5.575,0,0,1-.513,1.192,5.577,5.577,0,0,1-.776,1.041,6.239,6.239,0,0,1-4.143,1.874A8.166,8.166,0,0,1-252.707,186a8.5,8.5,0,0,1-1.54-1.141,1.37,1.37,0,0,1-.077-1.944,1.392,1.392,0,0,1,1.958-.051,5.666,5.666,0,0,0,1.031.76,5.337,5.337,0,0,0,3.021.731,3.533,3.533,0,0,0,2.349-1.029,2.9,2.9,0,0,0,.4-.541,2.918,2.918,0,0,0,.269-.616,3.534,3.534,0,0,0-.283-2.549,5.336,5.336,0,0,0-2.143-2.251A5.692,5.692,0,0,0-248.9,176.854Z" transform="translate(254.693 -174.165)"></path><path class="a" d="M-234.914,191.159a4.672,4.672,0,0,0,1.754,6.357,4.672,4.672,0,0,0,6.382-1.66,4.672,4.672,0,0,0-1.754-6.357A4.672,4.672,0,0,0-234.914,191.159Z" transform="translate(242.943 -183.175)"></path><path class="c" d="M-232.664,193.061a3.756,3.756,0,0,0,1.41,5.111,3.757,3.757,0,0,0,5.131-1.334,3.756,3.756,0,0,0-1.41-5.111A3.756,3.756,0,0,0-232.664,193.061Z" transform="translate(241.49 -184.617)"></path></g><g transform="translate(0 13.237)"><path class="a" d="M-335.428,136.285a1.391,1.391,0,0,1,.934,1.721,1.369,1.369,0,0,1-1.722.905,8.5,8.5,0,0,1-1.757-.764,8.166,8.166,0,0,1-3.263-3.466,6.24,6.24,0,0,1-.448-4.525,5.6,5.6,0,0,1,.513-1.192,5.6,5.6,0,0,1,.776-1.041,6.24,6.24,0,0,1,4.143-1.874,8.167,8.167,0,0,1,4.634,1.092,8.531,8.531,0,0,1,1.54,1.141,1.369,1.369,0,0,1,.077,1.944,1.391,1.391,0,0,1-1.958.051,5.687,5.687,0,0,0-1.031-.76,5.336,5.336,0,0,0-3.021-.731,3.532,3.532,0,0,0-2.348,1.029,2.918,2.918,0,0,0-.4.541,2.909,2.909,0,0,0-.269.616,3.532,3.532,0,0,0,.283,2.549,5.332,5.332,0,0,0,2.143,2.251A5.692,5.692,0,0,0-335.428,136.285Z" transform="translate(346.412 -123.994)"></path><path class="a" d="M-352.907,123.07a4.663,4.663,0,0,1,6.382-1.66,4.663,4.663,0,0,1,1.754,6.357,4.664,4.664,0,0,1-6.382,1.66A4.663,4.663,0,0,1-352.907,123.07Z" transform="translate(353.52 -120.772)"></path><path class="c" d="M-350.656,124.973a3.749,3.749,0,0,1,5.131-1.334,3.749,3.749,0,0,1,1.41,5.11,3.749,3.749,0,0,1-5.131,1.334A3.749,3.749,0,0,1-350.656,124.973Z" transform="translate(352.066 -122.215)"></path></g></g></svg>