<svg width="134" height="40" viewBox="0 0 134 40" fill="none" xmlns="http://www.w3.org/2000/svg">
<g id="Logo" clip-path="url(#clip0_750_2043)">
<g id="Logo_2">
<g id="Brand-Mark">
<path id="Logo_3" d="M0 0L17.4413 20.0522L0.0939948 20.0522C5.89243 26.6893 11.6606 33.3535 17.4475 40L0 40L0 0ZM22.5514 0L40 0C40 17.7775 40 31.1109 40 40H39.9614C38.5117 38.3614 37.0903 36.6976 35.6512 35.0496C31.2909 30.0125 26.9013 25.0005 22.5598 19.9478C28.3258 19.9467 34.0919 19.9488 39.858 19.9478C34.0867 13.3003 28.3091 6.65901 22.5514 0Z" fill="#202020"/>
</g>
<g id="zeenome">
<path id="Shape" d="M64.7926 9.38662C66.8063 8.67309 69.3827 9.11354 70.6702 10.9458C71.4838 12.0557 71.6632 13.4989 71.5159 14.8409C69.2588 14.8409 67.0016 14.8394 64.743 14.8409C64.8291 15.2886 64.9166 15.7555 65.233 16.1049C65.9606 17.049 67.6724 16.8948 68.1637 15.7761C69.2223 15.7731 70.2809 15.7746 71.3395 15.7746C70.9691 17.1327 69.9689 18.2998 68.6537 18.8005C66.9433 19.4494 64.8524 19.2571 63.4249 18.0517C61.8268 16.7084 61.4681 14.3534 62.0018 12.4125C62.3795 11.028 63.438 9.85203 64.7926 9.38662ZM65.5217 11.8458C65.0813 12.1482 64.8816 12.665 64.762 13.1657C66.0145 13.1671 67.2656 13.1686 68.5181 13.1657C68.4729 12.7972 68.4116 12.4066 68.155 12.1189C67.5032 11.3995 66.3076 11.2835 65.5217 11.8458Z" fill="#202020"/>
<path id="Shape_2" d="M75.5262 9.38568C77.5646 8.6619 80.1819 9.1317 81.449 11.0168C82.2233 12.1178 82.388 13.5272 82.2451 14.8412C79.988 14.8412 77.7308 14.8397 75.4722 14.8412C75.5568 15.2875 75.6458 15.7544 75.9607 16.1038C76.6883 17.0492 78.4001 16.8951 78.893 15.7764C79.9515 15.7734 81.0101 15.7764 82.0687 15.7749C81.6984 17.13 80.701 18.2971 79.3887 18.7978C77.6784 19.4496 75.5874 19.2587 74.1585 18.0549C72.5575 16.713 72.1973 14.3582 72.7295 12.4173C73.1072 11.03 74.1687 9.85107 75.5262 9.38568ZM76.2523 11.8448C75.812 12.1472 75.6108 12.664 75.4912 13.1661C76.7437 13.1675 77.9948 13.169 79.2473 13.1661C79.2021 12.7961 79.1408 12.4041 78.8828 12.1178C78.2295 11.3999 77.0368 11.284 76.2523 11.8448Z" fill="#202020"/>
<path id="Shape_3" d="M98.5299 9.16392C100.093 8.87491 101.826 9.1918 103.051 10.2613C104.948 11.9146 105.193 15.0497 103.8 17.1006C101.986 19.7516 97.5792 19.8719 95.6125 17.3427C94.5007 15.9065 94.3294 13.8775 94.9085 12.186C95.4528 10.6031 96.9072 9.43826 98.5299 9.16392ZM98.9537 11.7811C98.2367 12.0247 97.7591 12.7303 97.6663 13.4712C97.54 14.3646 97.6242 15.4194 98.3267 16.0649C99.0684 16.7764 100.363 16.6899 101.039 15.927C101.738 15.1583 101.768 13.9788 101.485 13.0267C101.177 11.9836 99.9552 11.3909 98.9537 11.7811Z" fill="#202020"/>
<path id="Shape_4" d="M126.459 9.42698C128.542 8.63136 131.274 9.11724 132.541 11.0901C133.276 12.1823 133.426 13.5562 133.287 14.8407C131.03 14.8407 128.773 14.8392 126.514 14.8407C126.599 15.2884 126.689 15.7581 127.005 16.106C127.735 17.0484 129.444 16.8928 129.935 15.7757C130.994 15.7728 132.052 15.7743 133.111 15.7757C132.74 17.1306 131.74 18.2991 130.426 18.7996C128.712 19.4514 126.613 19.2562 125.187 18.0437C123.596 16.6976 123.24 14.3504 123.773 12.4142C124.142 11.0681 125.151 9.91286 126.459 9.42698ZM127.285 11.8505C126.851 12.1544 126.651 12.6667 126.533 13.1658C127.784 13.1672 129.037 13.1687 130.289 13.1658C130.244 12.7929 130.181 12.398 129.92 12.1103C129.263 11.3969 128.07 11.2854 127.285 11.8505Z" fill="#202020"/>
<path id="Path" d="M53.3706 9.06244C55.8975 9.06244 58.4244 9.06244 60.9514 9.06244C60.9529 9.85352 60.9469 10.6446 60.9543 11.4372C59.5559 13.0895 58.1397 14.7287 56.7354 16.3781C58.1709 16.3811 59.6063 16.3781 61.0403 16.3796C61.0403 17.2043 61.0403 18.029 61.0418 18.8523C58.4719 18.8552 55.9034 18.8537 53.335 18.8537C53.335 18.0597 53.3365 17.2657 53.3335 16.4703C54.7067 14.8237 56.0873 13.1831 57.462 11.538C56.0977 11.5351 54.7349 11.5366 53.3706 11.5366C53.3706 10.7119 53.3706 9.88715 53.3706 9.06244Z" fill="#202020"/>
<path id="Path_2" d="M83.231 9.16794C84.2349 9.16495 85.2418 9.16644 86.2472 9.16644C86.2472 9.60849 86.2472 10.049 86.2472 10.4911C87.5818 8.68557 90.5833 8.56759 92.0415 10.2731C92.7676 11.1094 93.0116 12.2548 93.016 13.3435C93.0263 15.2849 93.0175 17.2248 93.0204 19.1662C92.0209 19.1662 91.0214 19.1662 90.0218 19.1662C90.0218 17.4204 90.0204 15.6762 90.0218 13.9304C90.0233 13.4032 89.9733 12.8447 89.6749 12.3967C88.9915 11.3363 87.1835 11.3617 86.5544 12.4654C86.231 12.994 86.2442 13.6392 86.2457 14.2395C86.2486 15.8823 86.2457 17.5235 86.2472 19.1662C85.2418 19.1662 84.2364 19.1677 83.2295 19.1647C83.231 15.833 83.231 12.4997 83.231 9.16794Z" fill="#202020"/>
<path id="Path_3" d="M105.835 9.16895C106.826 9.16596 107.82 9.16745 108.813 9.16745C108.811 9.58407 108.813 10.0022 108.813 10.4188C110.165 8.64183 113.086 8.61645 114.511 10.3098C114.665 10.5099 114.809 10.7189 114.96 10.925C115.598 9.99322 116.565 9.24809 117.686 9.10324C118.849 8.96587 120.124 9.23166 120.993 10.0843C121.826 10.8712 122.163 12.0614 122.176 13.1947C122.199 15.1852 122.179 17.1757 122.186 19.1662C121.2 19.1662 120.213 19.1662 119.226 19.1662C119.222 17.334 119.233 15.5003 119.222 13.6681C119.216 13.0574 119.01 12.3959 118.495 12.042C117.892 11.6328 117.074 11.6164 116.428 11.9225C115.801 12.2256 115.502 12.9633 115.505 13.6442C115.489 15.4854 115.504 17.3251 115.499 19.1662C114.513 19.1662 113.526 19.1662 112.539 19.1662C112.538 17.3699 112.542 15.5735 112.538 13.7786C112.541 13.1694 112.385 12.5064 111.901 12.1136C111.298 11.6328 110.423 11.6029 109.744 11.921C109.117 12.2226 108.816 12.9573 108.82 13.6397C108.803 15.4809 108.817 17.3236 108.813 19.1662C107.82 19.1662 106.826 19.1677 105.833 19.1647C105.835 15.8333 105.835 12.5004 105.835 9.16895Z" fill="#202020"/>
</g>
<g id="longevity">
<path id="Path_4" d="M53.3349 21.6666C54.3052 21.6652 55.277 21.6666 56.2502 21.6666C56.2502 25.8677 56.2502 31.2152 56.2502 35.4163C55.2784 35.4163 54.3052 35.4177 53.3335 35.4149C53.3349 31.2152 53.3349 25.8677 53.3349 21.6666Z" fill="#202020"/>
<path id="Path_5" d="M117.377 23.5416C118.322 23.5416 119.266 23.5416 120.211 23.5416C120.211 24.3171 120.21 25.0926 120.211 25.8681C120.83 25.8681 121.448 25.8667 122.068 25.8696C122.065 26.6778 122.067 27.4876 122.067 28.2973C121.447 28.2973 120.828 28.2973 120.211 28.2973C120.212 29.5332 120.207 30.7692 120.212 32.0066C120.207 32.323 120.256 32.735 120.599 32.8505C121.078 32.9945 121.589 32.9132 122.083 32.9332C122.083 33.76 122.082 34.5868 122.083 35.4122C120.89 35.3908 119.576 35.5662 118.526 34.8463C117.729 34.3374 117.422 33.3309 117.395 32.4114C117.354 31.04 117.388 29.6687 117.377 28.2973C117 28.2973 116.625 28.2973 116.251 28.2973C116.249 27.4876 116.251 26.6778 116.251 25.8681C116.625 25.8681 117 25.8681 117.379 25.8653C117.376 25.0912 117.376 24.3171 117.377 23.5416Z" fill="#202020"/>
<path id="Shape_5" d="M61.4897 25.7236C62.9897 25.4434 64.6525 25.7492 65.8269 26.7875C67.6928 28.4346 67.8946 31.5951 66.4322 33.5764C65.1993 35.2505 62.8867 35.7583 60.9763 35.1979C59.6349 34.821 58.4939 33.7699 58.0264 32.4257C57.3655 30.5283 57.7161 28.1586 59.2565 26.8031C59.884 26.2413 60.6716 25.8815 61.4897 25.7236ZM61.8849 28.2667C61.2073 28.5043 60.7564 29.1827 60.6646 29.8925C60.5269 30.8227 60.6479 31.9563 61.4563 32.548C62.333 33.2166 63.7202 32.8539 64.2003 31.8539C64.6066 30.965 64.5982 29.8356 64.0959 28.9893C63.6367 28.2582 62.6725 27.9652 61.8849 28.2667Z" fill="#202020"/>
<path id="Shape_6" d="M80.8578 26.761C82.3636 25.1766 85.3285 25.2123 86.5753 27.1032C86.5739 26.6526 86.5753 26.202 86.5753 25.7527C87.5433 25.7527 88.5099 25.7527 89.4793 25.7527C89.4779 28.9358 89.4821 32.1188 89.4764 35.3004C89.4736 36.6052 89.0519 37.9785 88.0612 38.8655C87.2588 39.61 86.1677 39.9551 85.0935 39.9922C83.6755 40.0535 82.1471 39.7654 81.0687 38.7714C80.3498 38.1482 79.9549 37.2284 79.8332 36.2943C80.7885 36.2943 81.7423 36.2929 82.6976 36.2958C83.1887 37.7247 85.4742 37.8887 86.2639 36.6566C86.7225 35.8266 86.5342 34.8412 86.5753 33.9356C85.5464 35.4914 83.3061 35.8437 81.7381 34.9467C80.4715 34.2522 79.7172 32.8518 79.5431 31.4414C79.3223 29.7985 79.6563 27.9674 80.8578 26.761ZM83.8793 28.2641C82.307 28.7546 82.0141 30.995 82.9778 32.1744C83.6387 33.0058 84.9775 33.1227 85.7785 32.4297C86.6333 31.7266 86.738 30.4317 86.3786 29.4434C86.0106 28.4709 84.8572 27.9275 83.8793 28.2641Z" fill="#202020"/>
<path id="Shape_7" d="M92.4011 26.6378C93.5688 25.6914 95.177 25.4579 96.6214 25.7326C97.854 25.9646 98.9948 26.7317 99.6019 27.849C100.184 28.8638 100.282 30.0764 100.165 31.2221C97.9796 31.2221 95.7926 31.2207 93.6069 31.2235C93.6888 31.6548 93.7735 32.1073 94.0785 32.4432C94.7816 33.3626 96.442 33.2146 96.9193 32.1287C97.9443 32.1258 98.9694 32.1287 99.9945 32.1273C99.6584 33.3441 98.8127 34.4073 97.6704 34.9424C96.2034 35.6057 94.4145 35.5872 92.9984 34.7987C91.8858 34.1881 91.1149 33.0438 90.8621 31.8028C90.4837 29.9824 90.8904 27.839 92.4011 26.6378ZM94.3566 28.3201C93.9331 28.6147 93.7396 29.1128 93.6253 29.5982C94.8367 29.5996 96.0495 29.601 97.2624 29.5982C97.2172 29.2395 97.1579 28.8581 96.908 28.5791C96.274 27.8846 95.1163 27.775 94.3566 28.3201Z" fill="#202020"/>
<path id="Path_6" d="M68.646 25.7265C69.6181 25.7236 70.5916 25.7251 71.5666 25.7251C71.5652 26.1535 71.5652 26.5804 71.5666 27.0088C72.8775 25.2315 75.8607 25.1432 77.2399 26.8771C77.9316 27.7166 78.1266 28.8484 78.1237 29.9136C78.1266 31.7474 78.1237 33.5826 78.1252 35.4163C77.1559 35.4163 76.1895 35.4163 75.2216 35.4163C75.2188 33.6448 75.2273 31.8747 75.2174 30.1032C75.2188 29.4432 74.9782 28.7283 74.3961 28.3737C73.6489 27.9308 72.5487 28.022 71.9907 28.7355C71.6605 29.1465 71.568 29.6922 71.568 30.2089C71.5638 31.9442 71.568 33.6795 71.5666 35.4163C70.5931 35.4163 69.6181 35.4178 68.646 35.4149C68.646 32.1859 68.646 28.9555 68.646 25.7265Z" fill="#202020"/>
<path id="Path_7" d="M100.729 25.625C101.765 25.625 102.801 25.625 103.838 25.625C104.434 27.5843 105.028 29.5435 105.627 31.5028C105.69 31.7675 105.833 32.0294 105.805 32.3083C105.832 32.321 105.884 32.3465 105.91 32.3578C106.577 30.1098 107.272 27.8702 107.951 25.625C108.98 25.625 110.011 25.625 111.042 25.625C109.922 28.7847 108.8 31.9444 107.679 35.1042C106.483 35.1042 105.288 35.1042 104.093 35.1042C102.971 31.9444 101.85 28.7847 100.729 25.625Z" fill="#202020"/>
<path id="Path_8" d="M112.085 25.6268C113.055 25.6239 114.027 25.6254 115 25.6254C115 28.7848 115 31.9443 115 35.1038C114.027 35.1038 113.055 35.1052 112.083 35.1024C112.085 31.9443 112.085 28.7848 112.085 25.6268Z" fill="#202020"/>
<path id="Path_9" d="M122.604 25.7305H125.844L128.029 31.6049L130.199 25.7291L133.334 25.7305L127.402 40H124.283L126.453 34.8072L122.604 25.7305Z" fill="#202020"/>
<path id="Path_10" d="M112.818 21.751C113.398 21.5987 114.068 21.6357 114.559 22.0015C115.287 22.4457 115.414 23.5289 114.886 24.168C114.254 24.9039 113.022 24.9936 112.256 24.41C111.499 23.8976 111.471 22.6706 112.176 22.104C112.371 21.9603 112.581 21.8222 112.818 21.751Z" fill="#202020"/>
</g>
</g>
</g>
<defs>
<clipPath id="clip0_750_2043">
<rect width="133.281" height="40" fill="white"/>
</clipPath>
</defs>
</svg>
