<svg xmlns="http://www.w3.org/2000/svg" viewBox="0 0 760.46 353.76"><defs><style>.cls-1{isolation:isolate;}.cls-2{fill:#096;}.cls-3{fill:#39c;}.cls-4{fill:#f93;}.cls-5{fill:#f36;}.cls-6{fill:#fefefe;}.cls-7{fill:#fefcfb;}.cls-8{fill:#fe9833;}.cls-9{fill:#fe9933;}.cls-10{fill:#fe9a35;}.cls-11{fill:#029967;}.cls-12,.cls-18{fill:none;}.cls-12{stroke:#096;stroke-miterlimit:10;}.cls-13{fill:#039a68;}.cls-14{fill:#089c6a;}.cls-15{fill:#089c6b;}.cls-16{fill:#069b69;}.cls-17{fill:#039a67;}.cls-19{fill:#fff;}</style></defs><g id="Ellipse_1" data-name="Ellipse 1" class="cls-1"><path class="cls-2" d="M412,228.35l-78.09-78.08-35,35a14.27,14.27,0,0,0-20.17,20.17L243.9,240.24,275.69,272a19.32,19.32,0,0,1,26.23,26.23l31.95,31.95L412,252.12A16.82,16.82,0,0,0,412,228.35Z" transform="translate(343.58 -63.35)"/></g><g id="Ellipse_1_copy_5" data-name="Ellipse 1 copy 5" class="cls-1"><path class="cls-3" d="M275.05,181.59a19.33,19.33,0,0,1,23-3.27l32-32L251.88,68.28a16.78,16.78,0,0,0-23.76,0L150,146.36l35,35a14.27,14.27,0,0,0,20.18,20.18L240,236.33l31.79-31.79A19.3,19.3,0,0,1,275.05,181.59Z" transform="translate(343.58 -63.35)"/></g><g id="Ellipse_1_copy_6" data-name="Ellipse 1 copy 6" class="cls-1"><path class="cls-4" d="M236.1,240.24l-31.79-31.79a19.32,19.32,0,0,1-26.23-26.23l-32-31.95L68,228.35a16.82,16.82,0,0,0,0,23.77l78.09,78.08,35-35a14.27,14.27,0,0,0,20.17-20.17Z" transform="translate(343.58 -63.35)"/></g><g id="Ellipse_1_copy_4" data-name="Ellipse 1 copy 4" class="cls-1"><path class="cls-5" d="M295,299.13A14.27,14.27,0,0,0,274.81,279L240,244.14l-31.79,31.79A19.31,19.31,0,0,1,182,302.15l-32,32,78.09,78.08a16.78,16.78,0,0,0,23.76,0L330,334.11Z" transform="translate(343.58 -63.35)"/></g><g id="social-media_Image" data-name="social-media Image"><path class="cls-6" d="M148.77,259.6a19.84,19.84,0,1,1-20-19.81A19.8,19.8,0,0,1,148.77,259.6Z" transform="translate(343.58 -63.35)"/><path class="cls-6" d="M165.83,247.5a15.91,15.91,0,0,1-6.22-1.12,3,3,0,0,0-2-.09c-2.33.56-4.65,1.13-7,1.67-1.51.35-2.22-.37-1.88-1.88.48-2.06,1-4.12,1.49-6.16a2.93,2.93,0,0,0-.24-2.15c-3-6.35-2.49-12.45,1.44-18.27a3.62,3.62,0,0,1,.69-.82,1,1,0,0,1,1.32,0,1,1,0,0,1,.31,1.29,6.61,6.61,0,0,1-.6.89,15.18,15.18,0,0,0-1,16.33,3.39,3.39,0,0,1,.34,2.62c-.44,1.57-.75,3.18-1.16,4.77-.2.73-.18,1,.74.8,1.77-.49,3.57-.84,5.34-1.32a4.15,4.15,0,0,1,2.67.17,15.45,15.45,0,1,0-2.66-27.43c-.7.44-1.42.79-2-.08s.08-1.3.73-1.74c10.41-6.94,25.14-.37,27,12a17.64,17.64,0,0,1-15,20.34C167.43,247.47,166.62,247.45,165.83,247.5Z" transform="translate(343.58 -63.35)"/><path class="cls-6" d="M131.06,233.76c.27-1.29.54-2.44.74-3.61a1.6,1.6,0,0,1,1.69-1.48,10.68,10.68,0,0,0,.87-21.25,29,29,0,0,0-4.07-.09c-.82,0-1.5-.23-1.5-1.14s.67-1,1.44-1.05c2.8,0,5.58,0,8.21,1.23a13,13,0,0,1,7.26,13.18,12.88,12.88,0,0,1-10.44,11.08c-1,.18-1.56.45-1.64,1.57a26.42,26.42,0,0,1-.6,3.17c-.32,1.6-1.14,1.9-2.43.86-1.62-1.3-3.29-2.56-4.82-4a5.63,5.63,0,0,0-4-1.45,12.2,12.2,0,0,1-11.28-7,12.83,12.83,0,0,1,11.24-18.64c1,0,1.92,0,2.87,0,.69,0,1.19.27,1.21,1s-.47,1.13-1.22,1.16a28.35,28.35,0,0,0-4.78.22c-5.44,1.12-8.92,6-8.42,11.79a10.51,10.51,0,0,0,10.35,9.3,7.11,7.11,0,0,1,5.57,2.08C128.44,231.81,129.74,232.69,131.06,233.76Z" transform="translate(343.58 -63.35)"/><path class="cls-6" d="M168.4,279.41c-4.45-.16-8.63-2.75-11.25-7.81a3.19,3.19,0,0,0-1.24-1.38c-1.48-.86-2.94-1.76-4.4-2.68s-1.35-1.76,0-2.64,2.57-1.62,3.88-2.37a2.45,2.45,0,0,0,1.14-1.44A13.83,13.83,0,0,1,183.39,267C182.74,274,176.78,279.39,168.4,279.41Z" transform="translate(343.58 -63.35)"/><path class="cls-6" d="M155.32,231.12c0-1.36,0-2.72,0-4.07a2.06,2.06,0,0,1,2.11-2.26c1-.06,2,0,3,0a2.08,2.08,0,0,1,1.31.5c1,.82,1.33.78,2.07-.28a11.46,11.46,0,0,0,1.72-4.05c.37-1.61,1.08-2,2.6-1.36,2.25.88,3.23,2.28,3.07,4.69-.07.94.28,1,1.06,1,2.66,0,3.33.63,3.37,3.3.05,2.35,0,4.71,0,7.06a2.3,2.3,0,0,1-2.53,2.43c-2,0-3.91,0-5.87,0a4.44,4.44,0,0,1-3.14-1.26,1.38,1.38,0,0,0-2.09,0c-1,.86-4.47,1.11-5.59.4a2.1,2.1,0,0,1-1-1.9v-4.19Z" transform="translate(343.58 -63.35)"/><path class="cls-7" d="M127.53,215.91H120.1c-.28,0-.56,0-.84,0-.7,0-1.31-.29-1.33-1.09s.64-1.11,1.39-1.15H135c.24,0,.48,0,.72,0,.67.06,1.17.34,1.18,1.09s-.52,1.12-1.24,1.15-1.68,0-2.52,0Z" transform="translate(343.58 -63.35)"/><path class="cls-6" d="M127.38,222.46c-2.64,0-5.27,0-7.91,0-.8,0-1.53-.13-1.53-1.08s.7-1.1,1.51-1.1q8,0,16,0c.79,0,1.51.1,1.52,1.08s-.7,1.1-1.5,1.1C132.74,222.45,130.06,222.46,127.38,222.46Z" transform="translate(343.58 -63.35)"/><path class="cls-8" d="M116.78,272.25a17.56,17.56,0,1,1,24.48-.15c-.39-.08-.27-.43-.34-.67a5.67,5.67,0,0,0-3.53-3.82c-1-.42-2.12-.68-3.18-1-.69-.24-1-.52-.21-1.12a9.47,9.47,0,0,0,3.9-6.37c.36-3.5.32-7-2.08-9.92a8.35,8.35,0,0,0-9-3,8.62,8.62,0,0,0-6.71,7.46c-.55,3.34-.69,6.71,1.59,9.63a12.39,12.39,0,0,0,2.17,2.23c.74.56.5.88-.2,1.12-.49.17-1,.28-1.49.42C119.5,267.76,117.33,269.07,116.78,272.25Z" transform="translate(343.58 -63.35)"/><path class="cls-8" d="M129.13,277.23a17.65,17.65,0,0,1-9.48-2.62,1.4,1.4,0,0,1-.76-1.47,4.12,4.12,0,0,1,3.56-3.92,1.69,1.69,0,0,1,1.11.34c1.25.72,2.5,1.42,3.72,2.19a2.88,2.88,0,0,0,3.36,0c1-.64,2.06-1.21,3.1-1.82a3.39,3.39,0,0,1,4.68,1.22c1.05,1.76.72,3-1.07,4A16.74,16.74,0,0,1,129.13,277.23Z" transform="translate(343.58 -63.35)"/><path class="cls-8" d="M135.83,257.91c-.09,3.18-3,6.67-6,7.26a4.9,4.9,0,0,1-1.79,0c-3.09-.6-6.08-4.35-6-7.51,0-.27-.12-.68.15-.77a11.26,11.26,0,0,0,3-2c.27-.21.7,0,1,.09a7.64,7.64,0,0,0,5.49,0,1.36,1.36,0,0,1,1.71.42,3.08,3.08,0,0,0,1.53,1.11A1.1,1.1,0,0,1,135.83,257.91Z" transform="translate(343.58 -63.35)"/><path class="cls-9" d="M122.38,254.38a6.59,6.59,0,0,1,6.37-6.32,6.73,6.73,0,0,1,6.85,6.16c-.07,0-.17.05-.19,0-1.47-1.79-3.27-1.9-5.29-1.12a3.09,3.09,0,0,1-2.22,0C125.84,252.42,123.9,252.22,122.38,254.38Z" transform="translate(343.58 -63.35)"/><path class="cls-10" d="M128.93,270.16c-1.11-.66-2.15-1.26-3.16-1.89-.24-.14-.08-.35.06-.49.3-.28.42-.87,1-.67a6.36,6.36,0,0,0,4.22,0c.64-.21.81.43,1.06.77.37.53-.28.55-.51.7C130.74,269.14,129.83,269.63,128.93,270.16Z" transform="translate(343.58 -63.35)"/><path class="cls-8" d="M153.58,266.22c1.29-.8,2.4-1.51,3.53-2.16a2.8,2.8,0,0,0,1.35-1.73,11.6,11.6,0,0,1,13.29-8.17,11.65,11.65,0,0,1,.78,22.73,11.46,11.46,0,0,1-13-5.55,8.39,8.39,0,0,0-3.66-3.72C155.14,267.23,154.45,266.76,153.58,266.22Z" transform="translate(343.58 -63.35)"/><path class="cls-8" d="M167.66,221.8c1.42.85,1.67,1.59,1.2,3.2-.57,1.91-.15,2.47,1.86,2.47,2.68,0,2.68,0,2.68,2.68,0,1.6,0,3.2,0,4.8,0,.68-.14,1-.92,1-1.71-.05-3.43,0-5.15,0a2,2,0,0,1-1.36-.36,3.63,3.63,0,0,0-3-1.36c-.5.05-.39-.41-.39-.7,0-1.56,0-3.12,0-4.68,0-.34-.08-.74.47-.79,1.45-.11,2.21-1.15,2.92-2.23A18.88,18.88,0,0,0,167.66,221.8Z" transform="translate(343.58 -63.35)"/><path class="cls-9" d="M160.36,231.23c0,1.07,0,2.15,0,3.23,0,.75-.24,1-1,.93a1.55,1.55,0,0,0-.48,0c-1.12.19-1.53-.2-1.46-1.4.11-2,.07-4,0-6,0-.85.25-1.18,1.08-1a3,3,0,0,0,.6,0c.89-.13,1.31.16,1.22,1.15S160.36,230.19,160.36,231.23Z" transform="translate(343.58 -63.35)"/><path class="cls-6" d="M177,264.26a4.61,4.61,0,0,1-1.42,3.56c-1.65,1.63-3.34,3.22-5,4.83a1.23,1.23,0,0,1-2,0c-1.69-1.64-3.43-3.24-5.07-4.92a5,5,0,0,1-.3-6.57c1.36-1.73,3.56-2.07,5.82-.81a1,1,0,0,0,1.17-.08A4.39,4.39,0,0,1,177,264.26Z" transform="translate(343.58 -63.35)"/><path class="cls-8" d="M174.81,264.32a2.4,2.4,0,0,1-.74,1.86c-1.33,1.33-2.7,2.6-4,3.93-.39.39-.63.31-1,0-1.31-1.3-2.66-2.54-3.94-3.86a2.76,2.76,0,0,1-.1-3.8c.81-.91,2.08-.91,3.31.13a1.71,1.71,0,0,0,2.62-.12,2.22,2.22,0,0,1,2.55-.47A2.4,2.4,0,0,1,174.81,264.32Z" transform="translate(343.58 -63.35)"/></g><g id="joystick_Image" data-name="joystick Image"><path class="cls-6" d="M382.8,249.32a27.26,27.26,0,0,1-1.21,9.28c-1.86,5.29-5.73,7.25-11,5.52-3.9-1.26-7.18-3.63-10.37-6.12-2-1.57-3.84-3.35-5.78-5a19.5,19.5,0,0,0-9.3-3.93,35.26,35.26,0,0,0-18.3,1.21c-3,1.06-5.3,3.11-7.62,5.17-3.84,3.4-7.88,6.53-12.7,8.46-3.93,1.57-7.55.91-9.83-1.77A12.27,12.27,0,0,1,294,255.9c-1-6.65-.32-13.21.89-19.76A64.89,64.89,0,0,1,300.23,219c1.95-3.95,4.34-7.58,8.11-10.08a14.42,14.42,0,0,1,9.88-2.16c4.83.51,9.46,1.92,14.14,3a28.16,28.16,0,0,0,13.38-.4,109.54,109.54,0,0,1,11.91-2.65,14.77,14.77,0,0,1,13.61,4.91c4.26,4.7,6.47,10.41,8.23,16.35A78.4,78.4,0,0,1,382.8,249.32Z" transform="translate(343.58 -63.35)"/><path class="cls-11" d="M379.68,249.53a25.6,25.6,0,0,1-1,7.88,8.9,8.9,0,0,1-.47,1.21,4.71,4.71,0,0,1-5.94,2.88c-3.56-.85-6.48-2.89-9.34-5-2.24-1.66-4.23-3.61-6.32-5.45-3.72-3.28-8.28-4.76-13.09-5.39a38.28,38.28,0,0,0-15.92,1.11,25.81,25.81,0,0,0-10.42,6.16,43.53,43.53,0,0,1-9.38,6.89,14.29,14.29,0,0,1-4.68,1.61,4.42,4.42,0,0,1-4.79-2.3,14.88,14.88,0,0,1-1.66-7.23,72.51,72.51,0,0,1,6.2-31.16,24.24,24.24,0,0,1,4.5-6.8c3.49-3.7,7.79-4.63,12.63-3.83,4.1.68,8.07,1.89,12.11,2.82,5.08,1.18,10,.56,14.94-.64,3.07-.75,6.12-1.58,9.24-2.11,6.16-1,11,.93,14.52,6.09a45.44,45.44,0,0,1,6.27,15A79.66,79.66,0,0,1,379.68,249.53Z" transform="translate(343.58 -63.35)"/><path class="cls-12" d="M297.2,249.56c.35-10.47,2.16-20.61,6.9-30.07a24.69,24.69,0,0,1,2.45-3.81c3.37-4.45,7.85-6,13.28-5.09a85.54,85.54,0,0,1,9.52,2.26,34.18,34.18,0,0,0,18.84-.31,51.16,51.16,0,0,1,10.4-2.1,12.32,12.32,0,0,1,11.09,5.14,38.28,38.28,0,0,1,6.21,13.18,77.14,77.14,0,0,1,3.26,21.5,23,23,0,0,1-.93,6.95c-1.1,3.53-3.12,4.63-6.65,3.57a24,24,0,0,1-6.73-3.56,41,41,0,0,1-6-4.9,23.94,23.94,0,0,0-13.24-6.84,36.92,36.92,0,0,0-21.44,2,20.49,20.49,0,0,0-5.88,3.81,57.57,57.57,0,0,1-9.72,7.51,17.6,17.6,0,0,1-4.71,2,4.23,4.23,0,0,1-5.42-2.67,18.73,18.73,0,0,1-1.21-6.41C297.16,251,297.2,250.28,297.2,249.56Z" transform="translate(343.58 -63.35)"/><path class="cls-13" d="M329.7,229.82a6.41,6.41,0,0,1-5,6.27,1.15,1.15,0,0,0-1.06,1,6.55,6.55,0,0,1-12.8-.12.87.87,0,0,0-.77-.82c-3.39-.86-5.44-3.34-5.42-6.48s2.07-5.53,5.43-6.33c.53-.13.65-.38.77-.86a6.53,6.53,0,0,1,6.44-5.18,6.45,6.45,0,0,1,6.39,5.2,1,1,0,0,0,.91.86A6.49,6.49,0,0,1,329.7,229.82Z" transform="translate(343.58 -63.35)"/><path class="cls-14" d="M369.64,229.77a3.86,3.86,0,0,1-4,3.88,3.93,3.93,0,0,1-3.92-4,4,4,0,0,1,4-3.91A3.93,3.93,0,0,1,369.64,229.77Z" transform="translate(343.58 -63.35)"/><path class="cls-15" d="M353.81,221.83a3.88,3.88,0,0,1,3.88-4,3.93,3.93,0,0,1,4,3.87,4,4,0,0,1-3.91,4A3.93,3.93,0,0,1,353.81,221.83Z" transform="translate(343.58 -63.35)"/><path class="cls-16" d="M353.66,229.79a3.85,3.85,0,0,1-4,3.86,3.92,3.92,0,0,1-3.89-4,4,4,0,0,1,4-3.89A3.91,3.91,0,0,1,353.66,229.79Z" transform="translate(343.58 -63.35)"/><path class="cls-16" d="M357.75,241.6a3.91,3.91,0,1,1,0-7.81,3.91,3.91,0,1,1,0,7.81Z" transform="translate(343.58 -63.35)"/><path class="cls-6" d="M317.3,217.86a5.94,5.94,0,0,1,5.86,4.78,1.31,1.31,0,0,0,1.18,1.22,6,6,0,0,1,4.85,5.81,5.86,5.86,0,0,1-4.79,5.94,1.33,1.33,0,0,0-1.25,1.26,6.19,6.19,0,0,1-6,4.82,6,6,0,0,1-5.83-4.82,1.34,1.34,0,0,0-1.26-1.26,6,6,0,0,1-3.6-9.6,5.61,5.61,0,0,1,3.58-2.14,1.32,1.32,0,0,0,1.27-1.25A6,6,0,0,1,317.3,217.86Z" transform="translate(343.58 -63.35)"/><path class="cls-6" d="M369.14,229.74a3.46,3.46,0,0,1-3.39,3.43,3.44,3.44,0,1,1,0-6.87A3.48,3.48,0,0,1,369.14,229.74Z" transform="translate(343.58 -63.35)"/><path class="cls-6" d="M354.31,221.8a3.44,3.44,0,0,1,3.36-3.44,3.48,3.48,0,0,1,3.5,3.44,3.53,3.53,0,0,1-3.44,3.4A3.46,3.46,0,0,1,354.31,221.8Z" transform="translate(343.58 -63.35)"/><path class="cls-6" d="M353.11,229.78a3.37,3.37,0,1,1-3.41-3.48A3.41,3.41,0,0,1,353.11,229.78Z" transform="translate(343.58 -63.35)"/><path class="cls-6" d="M357.72,234.34a3.36,3.36,0,1,1,.07,6.71,3.36,3.36,0,1,1-.07-6.71Z" transform="translate(343.58 -63.35)"/><path class="cls-17" d="M326.14,229.72a2.78,2.78,0,0,1-2.71,2.89,9.45,9.45,0,0,1-1.19,0c-1.64,0-2.13.52-2.14,2.13,0,.32,0,.64,0,1a2.73,2.73,0,0,1-2.79,2.79,2.78,2.78,0,0,1-2.95-2.64,2.16,2.16,0,0,1,0-.36c.24-2.9-.78-3.17-3.16-3.07a2.61,2.61,0,0,1-2.86-2.67,2.67,2.67,0,0,1,2.7-2.84c.2,0,.4,0,.6,0,2.38,0,2.71-.36,2.71-2.79s1.72-3.82,3.86-3.12a2.7,2.7,0,0,1,1.88,2.5c.05.47,0,.95,0,1.43,0,1.33.63,1.92,2,2a14,14,0,0,1,2.15.11A2.75,2.75,0,0,1,326.14,229.72Z" transform="translate(343.58 -63.35)"/></g><g id="Layer_9" data-name="Layer 9"><path class="cls-18" d="M235.66,310.1c-5.4-6-12.88-5.32-17.16-1.64a11.7,11.7,0,0,0-4.19,8,12.13,12.13,0,0,0,4.18,10.41c-3.13.83-4.26,2.3-4.26,5.43q0,12.6,0,25.19c0,3.34,1.77,5.14,5.09,5.14h41.5c3.33,0,5.07-1.76,5.11-5.12,0-.74,0-1.48,0-2.45a8.58,8.58,0,0,1,2.81.42c3,1.66,5.77,3.56,8.74,5.19a3.3,3.3,0,0,0,4.89-2.91q.08-13,0-25.92a3.32,3.32,0,0,0-4.9-2.91,84.11,84.11,0,0,0-8.14,4.82,4.41,4.41,0,0,1-3,.62c-.46-2-.58-3.85-1.33-5.44-.88-1.86-2.9-2.1-5.13-1.92,7.4-5.87,7.86-13.76,5.62-19.11a15.7,15.7,0,0,0-15.07-9.67C243.66,298.33,238.45,302.51,235.66,310.1Z" transform="translate(343.58 -63.35)"/><path class="cls-19" d="M235.66,310.1c2.79-7.59,8-11.77,14.78-11.9a15.7,15.7,0,0,1,15.07,9.67c2.24,5.35,1.78,13.24-5.62,19.11,2.23-.18,4.25.06,5.13,1.92.75,1.59.87,3.48,1.33,5.44a4.41,4.41,0,0,0,3-.62,84.11,84.11,0,0,1,8.14-4.82,3.32,3.32,0,0,1,4.9,2.91q.08,13,0,25.92a3.3,3.3,0,0,1-4.89,2.91c-3-1.63-5.78-3.53-8.74-5.19a8.58,8.58,0,0,0-2.81-.42c0,1,0,1.71,0,2.45,0,3.36-1.78,5.12-5.11,5.12h-41.5c-3.32,0-5.09-1.8-5.09-5.14q0-12.58,0-25.19c0-3.13,1.13-4.6,4.26-5.43a12.13,12.13,0,0,1-4.18-10.41,11.7,11.7,0,0,1,4.19-8C222.78,304.78,230.26,304.07,235.66,310.1Zm4.4,49.82h20.76c1.8,0,2.39-.58,2.39-2.35q0-12.78,0-25.56c0-1.79-.59-2.38-2.35-2.38H219.34c-1.82,0-2.43.61-2.44,2.47q0,12.64,0,25.31c0,1.93.6,2.51,2.52,2.51ZM251,300.85a13,13,0,1,0,13.09,13A13.07,13.07,0,0,0,251,300.85Zm-15.41,16.76a9.32,9.32,0,1,0-9.31,9.33A9.35,9.35,0,0,0,235.55,317.61Zm44.18,27.28c0-4.11,0-8.23,0-12.35,0-1.35-.46-1.63-1.59-1-2.07,1.2-4.15,2.39-6.18,3.67a1.81,1.81,0,0,0-.66,1.33c-.05,5.48,0,10.95-.05,16.43a1.5,1.5,0,0,0,.89,1.49c1.95,1.1,3.86,2.26,5.79,3.39,1.37.8,1.8.56,1.8-1C279.74,352.89,279.73,348.89,279.73,344.89ZM266,337.12v15.29h2.45V337.12Zm-28.53-14.83-3.28,4.57h7.54Z" transform="translate(343.58 -63.35)"/><path class="cls-18" d="M240.06,359.92H219.42c-1.92,0-2.51-.58-2.52-2.51q0-12.66,0-25.31c0-1.86.62-2.47,2.44-2.47h41.52c1.76,0,2.35.59,2.35,2.38q0,12.78,0,25.56c0,1.77-.59,2.35-2.39,2.35Z" transform="translate(343.58 -63.35)"/><path class="cls-18" d="M251,300.85a13,13,0,1,1-13,13.07A13.12,13.12,0,0,1,251,300.85Z" transform="translate(343.58 -63.35)"/><path class="cls-18" d="M235.55,317.61a9.32,9.32,0,1,1-9.32-9.31A9.37,9.37,0,0,1,235.55,317.61Z" transform="translate(343.58 -63.35)"/><path class="cls-18" d="M279.73,344.89c0,4,0,8,0,12,0,1.54-.43,1.78-1.8,1-1.93-1.13-3.84-2.29-5.79-3.39a1.5,1.5,0,0,1-.89-1.49c0-5.48,0-10.95.05-16.43a1.81,1.81,0,0,1,.66-1.33c2-1.28,4.11-2.47,6.18-3.67,1.13-.65,1.59-.37,1.59,1C279.74,336.66,279.73,340.78,279.73,344.89Z" transform="translate(343.58 -63.35)"/><path class="cls-18" d="M266,337.12h2.45v15.29H266Z" transform="translate(343.58 -63.35)"/><path class="cls-18" d="M237.49,322.29l4.26,4.57h-7.54Z" transform="translate(343.58 -63.35)"/></g><g id="PUZZLE_GROUP" data-name="PUZZLE
GROUP"><path class="cls-19" d="M185.21,125.57h9.18a7.66,7.66,0,0,1,3.64.83,6,6,0,0,1,2.46,2.39,7.15,7.15,0,0,1,.87,3.55,6.68,6.68,0,0,1-.91,3.5,6.07,6.07,0,0,1-2.53,2.33,8.21,8.21,0,0,1-3.75.82h-4.72v-3.74h4.18a3.09,3.09,0,0,0,2.2-.77,2.62,2.62,0,0,0,.84-2,2.73,2.73,0,0,0-.84-2.09,3.06,3.06,0,0,0-2.2-.79h-3.74v17.63h-4.68Z" transform="translate(343.58 -63.35)"/><path class="cls-19" d="M211.71,147.76a9.43,9.43,0,0,1-4.39-1,7.39,7.39,0,0,1-3-2.64,6.7,6.7,0,0,1-1-3.6v-15h4.88v15.19a2.69,2.69,0,0,0,.39,1.33,3.31,3.31,0,0,0,1.2,1.18,3.79,3.79,0,0,0,1.92.47,3.75,3.75,0,0,0,1.93-.47,3.08,3.08,0,0,0,1.17-1.18,2.68,2.68,0,0,0,.38-1.33V125.57h4.91v15a6.63,6.63,0,0,1-1,3.61,7.44,7.44,0,0,1-3,2.63A9.43,9.43,0,0,1,211.71,147.76Z" transform="translate(343.58 -63.35)"/><path class="cls-19" d="M224,143l10-13.36H224v-4H239.2v4.27L229.09,143.2H239.2v4H224Z" transform="translate(343.58 -63.35)"/><path class="cls-19" d="M243.06,143l10-13.36h-10v-4h15.23v4.27l-10.1,13.36h10.1v4H243.06Z" transform="translate(343.58 -63.35)"/><path class="cls-19" d="M262.22,125.57h4.68V143.2h10.55v4H262.22Z" transform="translate(343.58 -63.35)"/><path class="cls-19" d="M280.14,125.57h15.13v4H284.82V143.2h10.45v4H280.14Zm1.93,8.7h9.72v4h-9.72Z" transform="translate(343.58 -63.35)"/><path class="cls-19" d="M212.77,172.45a6.16,6.16,0,0,1-2.76-.59,4.34,4.34,0,0,1-1.84-1.65,4.61,4.61,0,0,1-.65-2.44V161a5.08,5.08,0,0,1,.65-2.59,4.35,4.35,0,0,1,1.84-1.71,6,6,0,0,1,2.76-.6,6.76,6.76,0,0,1,2.69.51,4.39,4.39,0,0,1,1.86,1.45,3.54,3.54,0,0,1,.68,2.11v1.13h-1.25V160.2a2.75,2.75,0,0,0-.5-1.59,3.3,3.3,0,0,0-1.42-1.1,5.15,5.15,0,0,0-2.06-.39,4.11,4.11,0,0,0-2.92,1,3.55,3.55,0,0,0-1.1,2.75v6.7a3.55,3.55,0,0,0,1.12,2.74,4.16,4.16,0,0,0,2.93,1,4.76,4.76,0,0,0,3-.77,3,3,0,0,0,1-2.48v-2.77h-3.85v-1H218v3.8a4.21,4.21,0,0,1-.63,2.33,3.94,3.94,0,0,1-1.79,1.49A7,7,0,0,1,212.77,172.45Z" transform="translate(343.58 -63.35)"/><path class="cls-19" d="M221.45,156.15h6.12a4.7,4.7,0,0,1,2.29.54,3.65,3.65,0,0,1,1.52,1.52,4.75,4.75,0,0,1,.54,2.31,4.47,4.47,0,0,1-.55,2.25,3.84,3.84,0,0,1-1.55,1.52,4.76,4.76,0,0,1-2.3.53h-5v-1h4.95a3.09,3.09,0,0,0,3.25-3.28,3.28,3.28,0,0,0-.9-2.41,3.16,3.16,0,0,0-2.35-.91h-4.78v15h-1.22Zm5.17,8,1.2-.08,3.85,8.1h-1.32Z" transform="translate(343.58 -63.35)"/><path class="cls-19" d="M239.85,172.45a6,6,0,0,1-2.79-.63,4.72,4.72,0,0,1-1.91-1.66,4,4,0,0,1-.68-2.19v-7.42a4,4,0,0,1,.68-2.21,4.81,4.81,0,0,1,1.91-1.67,6.16,6.16,0,0,1,2.79-.62,6.22,6.22,0,0,1,2.82.61,4.64,4.64,0,0,1,1.89,1.65,4.1,4.1,0,0,1,.66,2.24V168a4,4,0,0,1-.66,2.2,4.64,4.64,0,0,1-1.89,1.65A6.1,6.1,0,0,1,239.85,172.45Zm0-1a4.52,4.52,0,0,0,2.15-.5,3.77,3.77,0,0,0,1.42-1.28,2.92,2.92,0,0,0,.5-1.6v-7.6a2.86,2.86,0,0,0-.5-1.58,3.7,3.7,0,0,0-1.42-1.25,4.9,4.9,0,0,0-4.27,0,3.87,3.87,0,0,0-1.45,1.25,2.8,2.8,0,0,0-.51,1.58V168a2.86,2.86,0,0,0,.51,1.6,3.94,3.94,0,0,0,1.45,1.28A4.48,4.48,0,0,0,239.85,171.4Z" transform="translate(343.58 -63.35)"/><path class="cls-19" d="M254.42,172.45a6.09,6.09,0,0,1-2.79-.63,4.78,4.78,0,0,1-1.91-1.66,3.94,3.94,0,0,1-.67-2.19V156.15h1.27V168a2.81,2.81,0,0,0,.53,1.6,3.9,3.9,0,0,0,1.46,1.28,4.44,4.44,0,0,0,2.11.5,4.49,4.49,0,0,0,2.15-.5,3.8,3.8,0,0,0,1.43-1.28,2.92,2.92,0,0,0,.5-1.6V156.15h1.3V168a4,4,0,0,1-.67,2.2,4.67,4.67,0,0,1-1.88,1.65A6.11,6.11,0,0,1,254.42,172.45Z" transform="translate(343.58 -63.35)"/><path class="cls-19" d="M263.4,156.15h6.12a4.7,4.7,0,0,1,2.29.54,3.65,3.65,0,0,1,1.52,1.52,4.75,4.75,0,0,1,.54,2.31,4.47,4.47,0,0,1-.55,2.25,3.84,3.84,0,0,1-1.55,1.52,4.76,4.76,0,0,1-2.3.53h-5v-1h4.95a3.09,3.09,0,0,0,3.25-3.28,3.28,3.28,0,0,0-.9-2.41,3.16,3.16,0,0,0-2.35-.91h-4.78v15H263.4Z" transform="translate(343.58 -63.35)"/><path class="cls-5" d="M-131.1,222q-15.84,3.85-26.45-2.75T-171,198.14q-2.85-14.46,3.41-32.5l15,5.83q-4.29,12.21-3.46,20.62t6.32,11.77q5.51,3.36,15,1c.59-.15,1.19-.31,1.82-.5l1.7-.49a55.37,55.37,0,0,0,9-3,7.5,7.5,0,0,0,3.8-3.63,15.44,15.44,0,0,0,.82-6.82l-2.75-71.06,15.73-.88,2.75,71.06q.33,8.91-2,14.85a21.45,21.45,0,0,1-7.59,9.68,46.38,46.38,0,0,1-13.92,6.27C-127.4,221-129.26,221.52-131.1,222Z" transform="translate(343.58 -63.35)"/><path class="cls-5" d="M-96.45,207c.73-.22,1.45-.42,2.15-.61s1.37-.38,2-.6a81.84,81.84,0,0,0,10.62-3.47,9.35,9.35,0,0,0,4.56-3.63q1.22-2.15.66-6.1L-80.83,161l15.51-2.31,4.4,31.9q1.22,9-1.32,15a21.68,21.68,0,0,1-8.63,9.9q-6.1,3.91-16.56,7.1a20.41,20.41,0,0,1-2.36.77l-2.48.66Zm11.66-67,11-11,10.89,11-10.89,11Z" transform="translate(343.58 -63.35)"/><path class="cls-5" d="M-24,196q-8.25,0-13.09-2.59a15.83,15.83,0,0,1-7.2-8.19q-2.37-5.61-2.81-15.18l-2-50.6,15.84-.88,2,51.48v1.32a17.86,17.86,0,0,0,.44,4.78A2.5,2.5,0,0,0-29,177.9a21.24,21.24,0,0,0,5,.39h1.1V196Z" transform="translate(343.58 -63.35)"/><path class="cls-5" d="M-24,178.29H-6.91a16.14,16.14,0,0,0,5.67-.77,3.62,3.62,0,0,0,2.36-2.64,11.69,11.69,0,0,0-.44-5.28l-4.29-16.39,15.18-4.51L16.08,166q2.31,8.58,0,15.4a20,20,0,0,1-8.41,10.72A26.43,26.43,0,0,1-6.91,196H-24Zm1.1,34.1,9.68-9.79,9.68,9.79-9.68,9.68ZM-9.55,229l7.81-7.7L6.07,229l-7.81,7.92Zm9.46-16.61,9.68-9.79,9.79,9.79-9.79,9.68Z" transform="translate(343.58 -63.35)"/><path class="cls-3" d="M-340.21,347.14l1.54-.22q13.32-2.87,18.81-4.62t7.65-4.84c1.43-2,1.92-5.1,1.48-9.13l-1.87-17.6q-.66-7-4-10.78a10.08,10.08,0,0,0-8.31-3.52,9.42,9.42,0,0,0-5.83,2.09,11.41,11.41,0,0,0-3.52,5.06,15.84,15.84,0,0,0-.88,6.38,9.43,9.43,0,0,0,2.81,6.54q2.47,2.26,7.2,2.26h28.6V328h-28.6q-7.92,0-12.81-4.62t-5.56-12.76a24.79,24.79,0,0,1,1.65-11.05,20.31,20.31,0,0,1,6.44-8.75,17,17,0,0,1,10.06-3.63,17.34,17.34,0,0,1,10.18,2.42,20.11,20.11,0,0,1,7.37,8,33.5,33.5,0,0,1,3.57,12.1l1.87,17.49q1,9.34-2.2,14.63T-315,349.94q-7.21,2.82-22.17,6a5.33,5.33,0,0,1-.66.17c-.22,0-.47.09-.77.16Z" transform="translate(343.58 -63.35)"/><path class="cls-3" d="M-297.64,318.76h20.46a17.84,17.84,0,0,0,7.26-1.32,7.53,7.53,0,0,0,4.13-4.4q1.16-3.07-.28-8.36l-4.29-16.39,8-2.31,4.51,16.83q2.2,8-.05,13.69a16.53,16.53,0,0,1-7.43,8.58A23.67,23.67,0,0,1-277.18,328h-20.46Zm6.38,25.08,6.93-6.93,6.93,6.93-6.93,6.93Zm19.14,0,6.82-6.93,6.93,6.93-6.93,6.93Z" transform="translate(343.58 -63.35)"/><path class="cls-3" d="M-225.48,328a27,27,0,0,1-9.46-1.49,14.66,14.66,0,0,1-6.21-4.12,10.76,10.76,0,0,1-2.59-6.16,20,20,0,0,1-.44-3.41c-.07-1.32-.11-2.6-.11-3.85h7.7c0,.88,0,1.81.11,2.81a24.43,24.43,0,0,0,.33,2.69v.33a4.6,4.6,0,0,0,2.86,3.08,18.28,18.28,0,0,0,6.49.88h7.48q7.37,0,9.85-2.69t1.15-7.21a71.27,71.27,0,0,0-6.6-14.08q-4.85-8.36-10.67-16.61l6.71-5.5A216.92,216.92,0,0,1-207,290.93q5.33,9.24,6.87,15.84a18.92,18.92,0,0,1-.16,10.61,14,14,0,0,1-6.6,7.7q-5,2.93-13.48,2.92Z" transform="translate(343.58 -63.35)"/><path class="cls-3" d="M-183.57,347.14l1.54-.22q13.31-2.87,18.81-4.62t7.65-4.84c1.43-2,1.92-5.1,1.48-9.13l-1.87-17.6q-.66-7-4-10.78a10.08,10.08,0,0,0-8.31-3.52,9.39,9.39,0,0,0-5.83,2.09,11.33,11.33,0,0,0-3.52,5.06,15.66,15.66,0,0,0-.88,6.38,9.43,9.43,0,0,0,2.81,6.54q2.47,2.26,7.2,2.26h28.6V328h-28.6q-7.92,0-12.81-4.62t-5.56-12.76a24.79,24.79,0,0,1,1.65-11.05,20.23,20.23,0,0,1,6.44-8.75,17,17,0,0,1,10.06-3.63,17.34,17.34,0,0,1,10.18,2.42,20.11,20.11,0,0,1,7.37,8,33.5,33.5,0,0,1,3.57,12.1l1.87,17.49q1,9.34-2.2,14.63t-10.39,8.08q-7.22,2.82-22.17,6a5.33,5.33,0,0,1-.66.17c-.22,0-.48.09-.77.16Z" transform="translate(343.58 -63.35)"/><path class="cls-3" d="M-141,318.76h21.23q5.51,0,7.87-2.2c1.57-1.47,2.25-3.59,2-6.38l-1.21-13.53,8.36-.77,1.21,13.53a18.4,18.4,0,0,1-1.65,9.79,14.7,14.7,0,0,1-6.38,6.49A21.29,21.29,0,0,1-119.77,328H-141Zm9.9-39.71,6.93-6.93,6.93,6.93-6.93,6.93Zm19.14,0,6.82-6.93,6.93,6.93-6.93,6.93ZM-91.61,328q-8.36,0-13-4.46t-5.28-13.36l8.36-.66a15.64,15.64,0,0,0,1.32,5.39,6.13,6.13,0,0,0,3,2.91,13.37,13.37,0,0,0,5.55.94Z" transform="translate(343.58 -63.35)"/><path class="cls-3" d="M-92.71,318.76h9.57q5.94,0,7.92-2.59a10.08,10.08,0,0,0,2-6.32V296.21h7.81v13.64a21.94,21.94,0,0,1-1.7,8.41,15.78,15.78,0,0,1-5.72,6.93A17.51,17.51,0,0,1-83.14,328h-9.57ZM-56,328a16.68,16.68,0,0,1-9.35-2.59,16.55,16.55,0,0,1-6-6.76,17.8,17.8,0,0,1-1.82-8.8h7.7a8.36,8.36,0,0,0,2.37,6.43q2.48,2.48,7.09,2.48h.66a1.28,1.28,0,0,0,.55-.11q5.17-.33,6.93-2.81a10.08,10.08,0,0,0,1.76-6V296.21h7.81v13.64A21.29,21.29,0,0,1-40,318.26a16.2,16.2,0,0,1-5.72,6.93Q-49.7,328-56,328Zm27.06,0a17.37,17.37,0,0,1-9.35-2.47,15.61,15.61,0,0,1-5.94-6.66,19.77,19.77,0,0,1-1.87-9h7.81a8.11,8.11,0,0,0,2.2,6.49c1.61,1.61,4,2.42,7.15,2.42a12.93,12.93,0,0,0,6.05-1.32,7.39,7.39,0,0,0,3.58-4.4q1-3.07-.39-8.36l-4.4-16.39,8-2.31,4.4,16.39q2.21,8,.22,13.86a16.1,16.1,0,0,1-6.71,8.8A19.84,19.84,0,0,1-28.91,328Z" transform="translate(343.58 -63.35)"/><path class="cls-3" d="M3.87,255.62l8.36-.44L15,327.89l-8.25.44Z" transform="translate(343.58 -63.35)"/></g></svg>